<svg xmlns="http://www.w3.org/2000/svg" version="1.1" width="600px" height="600px" viewBox="0 0 200 200" style="overflow:hidden!important;"><g id="svga-group-wrapper"><g id="svga-group-backs-single"><path id="SvgjsPath11549" d="M0 0h200v200H0V0z" fill="#ecf0f1" stroke-width="none" opacity="1"></path><path id="SvgjsPath11550" d="M6.5 16.3c4-9.2 13.8-13.8 22-11.3 6 1.9 10.6 7.5 11.8 14.3 0 0 25.4-15.2 41.7 1.1 6.1 6.1 6.7 17.8-4.9 27.2-8.8 7.2-19.5 1.4-19.5 1.4 2 5.6.6 11.5-3 14.3-5 3.8-14.5 2.2-18.9-5.8 0 0 2.5 13.2-12.6 15.4C7.9 75.1 8.7 60 8.7 60s-.9 4.4-8.7 4.4V13s1.4-.3 3.2.5 3.3 2.8 3.3 2.8zm136.2 47.3c-.2-.7-4.6-9.9-15.2-9-10.6.9-7.6 14.8-7.6 14.8s-14.3.5-15.5 11.8S116.4 103 134 92c0 0 13.9 14.1 28.9-.9 0 0 21 12.7 28.4.2S182.9 73 182.9 73s6.5-15.7-12-12c0 0-3-9-13.2-8.5-10.1.4-15 11.1-15 11.1zM81.6 149s-5.5 6.7-16.8 5.1c-11.3-1.6-12.2-10.9-12.2-10.9s-14.3 12.5-31.6 3-7.9-26.3-.7-30.7 20.3-.5 20.3-.5-1.6-4.8 4.6-8.5c6.2-3.7 11.3 1.8 11.3 1.8s1.2-8.3 14.1-8.1S83 112.5 83 112.5s5.1-9.2 16.4-3.7 7.6 14.3 7.6 14.3 3-3.7 6.5-4.2 7.6 3 7.2 6.9c0 0 8.8-8.1 20.3 5.5s-11.3 28.2-21.9 15.9c0 0-3.5 10.6-20.1 9.5S81.6 149 81.6 149zm72.7 19.1s-2.8-6.2-10.9-6-7.9 9.7-7.9 9.7-6-5.8-12-1.4 0 11.3 0 11.3-5.8.5-5.3 6.2 12.9 12.9 26.8-.2c0 0 4.2 6.7 11.3 4.9 7.2-1.9 6.9-8.5 6.9-8.5s9.7 8.5 19.2 2.5 6.7-23.6-8.8-24.5c-15.4-.9-19.3 6-19.3 6zM126.5 0s-7.4 3.7-5.5 12.9 16.1 8.3 19.6 3.5c0 0-2.8 9.7 7.4 10.1 0 0-.2 16.8 18.4 11s16.3-22.3 16.3-22.3 2.5 12.9 17.4 12.9V0h-73.6zM0 195.2s19.3 7.9 29.6-9.4-11.8-20.6-15.4-15.7c0 0 1.6-16.7-14.2-13.2v38.3z" fill="#ffffff" stroke-width="none" opacity="1"></path></g><g id="svga-group-humanwrap-move" transform="matrix(1,0,0,1,0,0)"><g id="svga-group-humanwrap"><g id="svga-group-hair-back-move" transform="matrix(1,0,0,1,0,0)"><g id="svga-group-hair-back"><path id="SvgjsPath10982" d="M55.6 64.2s-3.4 11.1-4.4 14.7 1.4 19.6 1.4 19.6-3.4 10.8-3.1 13.7 4.1 8.5 4.1 8.5-1.7 5.2-1.7 6.8 4.8 9.4 4.8 9.4l-1.7 5.5 6.2 6.8s-2.7 2.9-3.1 6.5c-.3 3.6 3.1 7.8 4.1 9.4s1 4.9 1 4.9l8.2-9.1s-3.1-9.1-6.2-11.7c0 0 4.8-11.4 3.1-14s-3.4-3.9-3.4-3.9 2.4-8.8 2.1-10.8-2.7-5.2-2.7-5.2 4.1-20.5 4.1-21.8S66 75.2 66 75.2l-10.4-11zm82.8-2.4s-4.4 10.8-5.7 14.3-.3 19.6-.3 19.6-4.3 10.4-4.2 13.4c.1 3 3.4 8.8 3.4 8.8s-2.1 5.1-2.3 6.7c-.1 1.6 4 9.9 4 9.9l-2.2 5.4 5.5 7.4s-3 2.7-3.6 6.2 2.4 8.1 3.3 9.8c.9 1.7.6 5 .6 5l8.9-8.4s-2.3-9.4-5.1-12.2c0 0 5.7-11 4.3-13.7-1.5-2.8-3.1-4.2-3.1-4.2s3.1-8.6 3-10.6c-.2-2-2.3-5.4-2.3-5.4s5.8-20.2 5.9-21.5c.1-1.3-.8-18.4-.8-18.4l-9.3-12.1z" fill="#2a232b" stroke-width="none" opacity="1"></path><path id="SvgjsPath10983" d="M69.5 154.4c-.5-1-1-2-1.6-3-.5-.8-1-1.6-1.7-2.4.6-1.4 1.1-2.7 1.6-4.1.5-1.6 1-3.2 1.4-4.9.2-.8.3-1.7.4-2.6V136c0-.3-.1-.5-.2-.8-.1-.1-.1-.3-.2-.4-.1-.1-.1-.2-.2-.3-.8-1.3-1.8-2.4-2.9-3.5.7-2.5 1.3-5.1 1.8-7.7.1-.7.2-1.4.2-2.3 0-1-.4-1.7-.7-2.4-.6-1.2-1.3-2.3-2-3.4 1.3-6.5 2.5-13 3.6-19.6l.2-1.3c0-.2.1-.5.1-.8 0-.2 0-.5-.1-.7-.1-.9-.2-1.7-.3-2.5-.2-1.7-.5-3.4-.7-5l-1.6-10v-.2l-.1-.1c-3.6-3.8-7.3-7.3-10.7-10.8L53 72.4c-.5 1.4-1 2.8-1.4 4.2l-.7 2.1c-.2.8-.3 1.6-.3 2.3-.1 3 .1 5.9.3 8.8.3 2.8.6 5.7 1 8.5-.6 1.8-1.1 3.7-1.6 5.5-.5 1.9-1 3.8-1.3 5.8-.1.5-.1 1-.2 1.6 0 .6 0 1.2.2 1.7.3 1.1.7 2 1.1 2.9.8 1.7 1.8 3.3 2.8 4.8-.4 1.3-.8 2.6-1.1 3.9-.2.7-.3 1.5-.4 2.3v.7c0 .1 0 .3.1.4l.1.3c.1.4.3.8.4 1.1.6 1.4 1.4 2.7 2.1 3.9.7 1.2 1.5 2.4 2.2 3.6l-1.5 5.4-.1.2.1.1 6 6.6c-1.2 1.4-2.2 3-2.7 4.8-.3.9-.4 1.9-.3 2.9.1 1 .4 1.9.8 2.8.8 1.8 1.8 3.4 2.9 5 .3.4.5.8.6 1.2.2.4.3.9.3 1.3.2.9.2 1.8.2 2.7v1.3l.9-1 8.4-9 .3-.3-.1-.4c-.8-1.8-1.6-3.9-2.6-6zm-7.4 10c-1.1-1.6-2.2-3.1-2.9-4.8-.4-.9-.7-1.7-.8-2.6-.1-.9 0-1.8.2-2.7.5-1.8 1.5-3.4 2.7-4.8l.2-.2-.2-.2c-2-2.2-4-4.5-6-6.7l1.7-5.3.1-.2-.1-.2c-.7-1.3-1.5-2.6-2.1-3.9-.7-1.3-1.4-2.6-1.9-3.9-.1-.3-.3-.7-.3-1l-.1-.2V127.1c.1-.7.3-1.4.5-2.1.4-1.4.8-2.8 1.3-4.2l.1-.4-.2-.3c-1-1.6-2-3.3-2.8-5-.4-.8-.8-1.7-1-2.6-.1-.4-.1-.8-.1-1.2 0-.4.1-.9.2-1.4.3-1.9.8-3.8 1.2-5.7.5-1.9 1-3.8 1.6-5.6l.1-.2v-.2c-.5-2.9-.8-5.8-1.2-8.6s-.7-5.8-.7-8.6c0-.7 0-1.4.2-2l.6-2c.4-1.4.7-2.7 1.1-4.1.7-2.8 1.5-5.6 2.3-8.5 3.4 3.8 6.5 7.6 9.7 11.2l1.2 9.9.6 5c.1.8.2 1.7.3 2.5v.6c0 .2 0 .3-.1.5l-.2 1.2c-.6 3.3-1.3 6.6-2 9.9l-2 9.9-.1.5.3.4c.8 1.1 1.5 2.3 2.1 3.4.3.6.5 1.2.5 1.6 0 .6-.1 1.2-.2 1.9-.4 2.7-1.1 5.4-1.8 8.1l-.2.7.5.4c1.1.9 2.2 2.1 3.1 3.4.1.1.1.2.2.2 0 0 0 .1.1.1 0 .1.1.2.1.4 0 .3.1.7 0 1 0 .7-.2 1.5-.3 2.3-.7 3.1-1.8 6.2-3 9.2l-.2.6.5.4c.7.6 1.3 1.5 1.9 2.4.6.9 1.1 1.9 1.6 2.8.9 1.8 1.7 3.8 2.4 5.7l-6.9 8c-.1-.6-.1-1.1-.3-1.7-.1-.5-.2-1-.4-1.4-.6-.3-.9-.7-1.1-1.1zm87.2-72.9c0-.9-.1-1.7-.1-2.6l-.3-5.1-.7-10.2v-.2l-.1-.1c-3.3-4.1-6.6-7.9-9.7-11.7l-3.5 8c-.6 1.4-1.2 2.7-1.8 4.1l-.9 2.1c-.3.8-.4 1.5-.5 2.3-.4 3-.4 5.9-.4 8.8 0 2.9.1 5.7.2 8.6l-2.1 5.4c-.7 1.9-1.3 3.7-1.8 5.7l-.3 1.5c-.1.5-.1 1.2 0 1.7.2 1.1.5 2.1.8 3 .7 1.8 1.5 3.4 2.4 5.1-.5 1.3-1 2.5-1.4 3.8-.2.7-.4 1.4-.6 2.2 0 .2-.1.4-.1.7v.4l.1.3c.1.4.2.8.4 1.1.5 1.4 1.1 2.8 1.8 4.1.6 1.3 1.2 2.5 1.9 3.8l-2 5.2-.1.2.1.2c1.8 2.4 3.6 4.7 5.4 7.1-1.3 1.3-2.4 2.9-3.1 4.6-.4.9-.6 1.9-.6 2.9s.2 2 .6 2.9c.6 1.9 1.6 3.6 2.4 5.2.2.4.4.8.5 1.2.1.4.2.9.2 1.3.1.9.1 1.9 0 2.8l-.1 1.3 1-.9 9.1-8.2.3-.3-.1-.4c-.5-2.2-1.2-4.4-1.9-6.5-.4-1.1-.8-2.1-1.3-3.2-.4-.9-.9-1.7-1.5-2.5.7-1.3 1.3-2.6 1.9-4 .7-1.5 1.3-3.1 1.8-4.7.2-.8.5-1.7.6-2.6.1-.4.1-.9.1-1.4 0-.3-.1-.5-.1-.8 0-.1-.1-.3-.2-.4-.1-.2-.1-.2-.2-.3-.7-1.3-1.6-2.6-2.6-3.7.9-2.5 1.7-5 2.4-7.6.2-.7.3-1.4.4-2.3.1-1-.2-1.8-.5-2.5-.5-1.3-1.1-2.4-1.7-3.6 1.8-6.4 3.6-12.8 5.2-19.2l.3-1.3c.1-.2.1-.5.1-.7.3-.2.3-.4.3-.6zm-1.7.6c0 .2-.1.3-.1.5l-.3 1.2c-.9 3.2-1.9 6.5-2.8 9.8l-2.9 9.8-.1.4.2.4c.7 1.2 1.3 2.4 1.8 3.6.2.6.4 1.2.4 1.6-.1.6-.2 1.2-.4 1.9-.7 2.7-1.6 5.3-2.5 8l-.2.6.5.5c1 1 2 2.3 2.8 3.7 0 .1.1.2.1.2s0 .1.1.1c0 .1.1.2.1.4 0 .3 0 .7-.1 1-.1.7-.3 1.5-.5 2.3-.9 3.1-2.3 6.1-3.7 9l-.3.6.4.5c.6.7 1.2 1.6 1.7 2.5.5.9.9 1.9 1.3 3 .7 1.9 1.4 3.9 1.9 5.9l-7.6 7.4c0-.6 0-1.1-.1-1.7l-.3-1.5c-.1-.5-.4-1-.7-1.4-1-1.6-1.9-3.3-2.5-5.1-.3-.9-.5-1.8-.6-2.7 0-.9.2-1.8.5-2.7.6-1.7 1.8-3.3 3.1-4.6l.2-.2-.2-.2-5.4-7.2 2.2-5.1.1-.2-.1-.2c-.6-1.3-1.2-2.7-1.8-4s-1.1-2.7-1.6-4.1c-.1-.3-.2-.7-.3-1l-.1-.2v-.2c0-.1 0-.3.1-.4.1-.7.4-1.3.6-2 .5-1.4 1.1-2.7 1.7-4.1l.2-.4-.2-.4c-.9-1.7-1.7-3.5-2.4-5.2-.3-.9-.6-1.8-.8-2.7-.1-.4-.1-.8 0-1.2.1-.4.2-.9.3-1.3.5-1.8 1.1-3.7 1.7-5.5.6-1.8 1.4-3.7 2.1-5.5l.1-.2v-.2c-.2-2.9-.4-5.8-.4-8.7-.1-2.9-.2-5.8.1-8.7.1-.7.2-1.4.4-2l.7-2c.5-1.3 1-2.7 1.4-4 1-2.7 1.9-5.5 3-8.3 3.1 4.1 5.9 8.2 8.7 12l.3 10 .1 5.1c0 .8.1 1.7 0 2.5.1.2.1.4.1.6zm-87 33.1c-.2-1.4-.3-2.9-.9-4.4-.6-1.4-1.3-2.6-2.1-3.9-.8-1.2-1.6-2.4-2.5-3.6.6 1.3 1.2 2.7 1.8 4 .6 1.3 1.3 2.6 1.8 3.9.3.6.4 1.3.6 2 .2.7.3 1.4.4 2.1l.9 4.2c.2-1.4.1-2.8 0-4.3zm1.1 11.4c0-.2.1-.4.1-.6 0-.1.1-.3.2-.5.4-.8.9-1.6 1.2-2.4-.7.6-1.3 1.2-1.9 2-.1.2-.3.4-.4.7-.1.2-.1.5-.2.7-.1.4-.2.9-.3 1.4-.3 1.8-.4 3.6-.2 5.4.6-1.8.9-3.5 1.2-5.3l.3-1.4zm74.4-2.8c.2-1.2.2-2.4.3-3.5v-1.7c.1-.5.2-1.1.4-1.6.5-2.3 1.1-4.5 1.4-6.9-1 2.2-1.8 4.4-2.3 6.7-.1.6-.3 1.1-.3 1.8 0 .6.1 1.2.1 1.8 0 1 .2 2.2.4 3.4zm2.3 6.2-.1-.1c-.4-.7-.9-1.3-1.4-1.9s-1-1.2-1.6-1.8c.3.8.6 1.5 1 2.2.4.7.7 1.3 1.1 1.9.1.9.1 1.7.3 2.6.1.9.3 1.8.6 2.7.1-.9.2-1.8.2-2.7s0-1.8-.1-2.7v-.2zm-74.6 23.5c0-.8 0-1.6-.1-2.4v-.1c-.4-1.3-.9-2.6-1.5-3.9.2-2.3.3-4.5.1-6.8-.6 2.3-.9 4.6-1.1 6.9v.2l1.8 3.9c.3.7.5 1.5.8 2.2zm75.2-10.6c.2 1 .5 2 .8 2.9-.2 1.5-.4 2.9-.4 4.5.6-1.4 1-2.9 1.3-4.4v-.2c-.2-1-.6-2-.9-3-.4-1-.7-2-1.2-2.9 0 1 .2 2.1.4 3.1zM67 159c-.2-1.4-.7-2.7-1.2-3.9-.6-1.2-1.2-2.4-2.1-3.5.2 1.4.7 2.7 1.2 3.9.5 1.2 1.1 2.4 2.1 3.5zm67.3-4.4v.2c.1.8.3 1.6.6 2.5.2-.8.3-1.6.3-2.4.4-.8.7-1.6 1-2.4.3-.9.5-1.7.6-2.7-.6.7-1 1.5-1.4 2.3-.5.8-.8 1.6-1.1 2.5zm2.5 1.5c0 1.2.1 2.4.4 3.6.4-1.2.5-2.4.6-3.6 0-1.2-.1-2.4-.4-3.6-.4 1.3-.6 2.4-.6 3.6z" fill="#1b141c" stroke-width="none" opacity="1"></path></g></g><g id="svga-group-humanbody-back"><path id="SvgjsPath5076" d="M77.8 105.9s4.8 37.7 10 55.8c0 0-6.4 8.8-14.5 11.9-28.7 11.2-35 11.2-39.6 15.2-2.4 2.1.2 11.1 1.8 17.2 1.3 5 1.7 13.2 1.7 13.2h132.2s1.6-33-.6-39.8-7.1-2.9-21.9-4.5c-14.8-1.6-28.7-10.3-31-13.2l.3-60-38.4 4.2z" fill="#f3d4cf" stroke-width="none" opacity="1" stroke="none"></path></g><g id="svga-group-chinshadow-single"><path id="SvgjsPath5469" d="M85.6 152.8c6.6 3.5 10.7 3.5 10.7 3.5s8 0 19.6-9.5l.2-45.2-38.4 4.2c.1.1 3.6 27.7 7.9 47z" fill="#d4958a" stroke-width="none" opacity="1" stroke="none"></path></g><g id="svga-group-humanbody-front"><path id="SvgjsPath5077" d="M72.1 183.1s14.6-.2 20.4 2.6c5.8 2.9 12.7 2.4 16.1-1s21.6-7 21.6-7-19.7 1.9-25 4.6c-5.3 2.7-22.3-2.8-33.1.8z" fill="#d4958a" stroke-width="none" opacity="1" stroke="none"></path><path id="SvgjsPath5078" d="M74.2 173.2c6.7-1.3 14.7-6.4 14.7-6.4l6.2 5.5c-4.3-7.9-12.7-41.1-12.7-41.1l-.7.7c1.7 10.5 3.9 21.9 6.1 29.7 0 0-6 8.2-13.6 11.6z" fill="#d4958a" stroke-width="none" opacity="1" stroke="none"></path><path id="SvgjsPath5079" d="M170.7 188.5c-.1-2.1-.2-4.1-.4-6.2-.1-1-.3-2.1-.6-3.2-.2-.5-.4-1-.6-1.6-.2-.5-.6-1-1-1.5s-.9-.9-1.5-1.1c-.6-.3-1.1-.4-1.7-.6-1.1-.2-2.2-.2-3.2-.2-2.1 0-4.1.1-6.1.1s-4-.1-6-.2-4-.4-6-.7c-1-.2-2-.4-2.9-.6l-1.5-.4c-.5-.1-1-.3-1.4-.4-3.8-1.1-7.6-2.6-11.2-4.4l-1.3-.7-1.3-.7c-.4-.2-.9-.5-1.3-.8s-.9-.5-1.3-.8-.8-.5-1.3-.8l-1.2-.9-.6-.5-.3-.2-.3-.2c-.2-.2-.4-.3-.5-.5l-.2-.3v-44.6l-.1-15v-.6l-.6.1c-6.4.8-12.9 1.5-19.3 2.3l-19.1 2.3v.5l.1.4.1.9.2 1.8c.1 1.2.3 2.3.4 3.5l.9 7c.6 4.7 1.3 9.4 2.1 14 .8 4.7 1.5 9.3 2.5 14 .9 4.5 1.8 9 3 13.5-1.1 1.4-2.3 2.7-3.6 4-1.3 1.3-2.8 2.6-4.3 3.8-1.5 1.1-3.1 2.2-4.8 3l-1.3.6c-.4.2-.9.3-1.3.5l-2.7 1c-7.2 2.7-14.5 5.3-21.8 7.7l-5.5 1.8c-1.8.6-3.7 1.3-5.5 2.2-.4.2-.9.5-1.3.7-.4.3-.9.5-1.3.9l-.6.5c-.2.2-.5.5-.6.8-.3.5-.4 1.1-.5 1.6-.2 1.1-.1 2.1 0 3.1s.3 2 .4 2.9c.4 1.9.8 3.8 1.3 5.7l.8 2.8c.3.9.5 1.8.7 2.8.4 1.9.7 3.8.9 5.7s.4 3.8.5 5.7v.8h133.4v-.8c.2-4.1.4-8.2.5-12.3s.2-8.2.2-12.3c0-1.8-.1-3.8-.1-5.9zm-67.4 30.3H70.2l-16.5-.1-16-.1c-.1-1.8-.2-3.5-.4-5.3-.2-1.9-.4-3.9-.8-5.8-.2-1-.4-1.9-.7-2.9l-.7-2.8c-.5-1.9-.9-3.7-1.2-5.6-.2-.9-.3-1.9-.4-2.8-.1-.9-.1-1.9 0-2.7.1-.4.2-.8.4-1.1.1-.2.2-.3.3-.4l.5-.4c.3-.3.7-.5 1.1-.8.4-.2.8-.5 1.2-.7 1.7-.8 3.5-1.4 5.3-2l5.5-1.8c7.3-2.4 14.6-5 21.8-7.8l2.7-1c.5-.2.9-.3 1.4-.5l1.4-.6c1.8-.9 3.4-2 5-3.2s3-2.5 4.4-3.9 2.7-2.9 3.8-4.5l.2-.3-.1-.3c-1.3-4.5-2.3-9.1-3.3-13.7s-1.9-9.3-2.7-13.9c-.8-4.6-1.6-9.3-2.4-14l-2.2-13.9 19.3-1.8c6.2-.6 12.3-1.2 18.5-1.8l-.2 14.4-.2 15-.3 30v.4l.2.2.6.7.6.6.3.3.3.2.6.5c.4.3.9.6 1.3.9.4.3.9.6 1.3.9.4.3.9.5 1.3.8s.9.5 1.3.8l1.4.8 1.4.7c.5.2.9.5 1.4.7l1.4.7c1 .4 1.9.8 2.9 1.2s1.9.8 2.9 1.1l1.5.5c.5.2 1 .3 1.5.4.5.1 1 .3 1.5.4l1.5.4c1 .3 2 .4 3 .6 2 .4 4.1.6 6.2.8 2.1.2 4.1.2 6.2.2 2.1 0 4.1-.1 6.1-.1s4 .1 5 1.3c.5.6.9 1.4 1.2 2.3.3.9.4 1.9.6 2.8.3 2 .4 4 .5 6s.1 4.1.2 6.1c.1 7.9-.1 15.8-.4 23.7-10.8.1-21.5.1-32.3.2h-33.1z" fill="#c5796d" stroke-width="none" opacity="1" stroke="none"></path><path id="SvgjsPath5080" d="M150.7 219.2 147 198l-.4 21.2z" fill="#d4958a" stroke-width="none" opacity="1" stroke="none"></path><path id="SvgjsPath5081" d="M47.3 203.5s2.2 11.5 2.9 15.7h3.5l-6.4-15.7z" fill="#d4958a" stroke-width="none" opacity="1" stroke="none"></path></g><g id="svga-group-clothes-single"><path id="SvgjsPath11270" d="M65.8 172.7c-3.8 1.5-13.8 4.8-17.9 5.2s-15.6 4.2-15.8 6.3c0 0-2.3.4-3.1 4.2s2.3 13.2 3.7 17.7c1.3 4.4 1.5 13.1 1.5 13.1h136.5s2.1-14.8 1.9-25.7 1.9-15.4-3.3-18.8c0 0-.2-3.3-8.4-3.1-8.3.2-26.7-1.5-28.6-2.7 0 0-8.4 15.9-29.2 16.7s-37.3-12.9-37.3-12.9z" fill="#09aac5" stroke-width="none" opacity="1"></path><path id="SvgjsPath11271" d="M85.6 154s-7.3-1.3-13.4-.1c.6.1 1.7.5 2.7 1.5 1.2 1.1 1.6 2.4 1.8 3-1.3-.8-3-1.6-5.1-2.2-3-.9-7-1.4-10.9.1 0 0 3.8.7 5.5 1.6s-7.5 1.9-11.5.2c0 0 3.2 4 8.3 3.8 0 0-6.3 3.3-7.3 6.1l8.1-2s-5.1 3.9-4.9 9.2c0 0 2.2-3.5 4.5-4.6 0 0-4.2 7.8.7 15.4 0 0-.2-4.4.8-6.6 0 0 0 12.7 10.4 19.1 0 0-1.7-4.2-1.5-6.1 0 0 6.2 11.6 17.6 14.9l-1.9-6.1s3.7 1.3 7.3 4.3c3.6 3 5.4 8.4 5.4 8.4s1.3-6.5-.6-10.1c0 0 3.8 4 4.9 7.4 0 0 1.3-5.4.5-7.5l5.7 7s-1.3-5.3.8-6.8 6.6-5.3 6.6-5.3l-1.3 4.2s4-2.5 6.6-8.1c0 0 .4 2.1 1.3 3.8 0 0 .4-6.2 1.9-8.5s5.9-6.4 6.6-9.3c0 0 .4 4-1.9 7.8 0 0 4.4-3.4 5.1-6.8.8-3.4 1.3-7.4-1.5-11.9 0 0 2.9.4 4.8 3.3 0 0 1.4-5.7-7.1-8.3 0 0 5.1-1.8 5.7-5.9 0 0-4.4 2.9-7.3 2.3s-5.5-.8-5.5-.8 4.5-3.4 6.2-5.5c0 0-7.9 2.8-9.7 1.5l2.4-3s-6.1 1.3-9.5 0c0 0-1.5 2.4-1.8 7.5-.3 5.1-7.8 8.9-7.8 8.9l5.7-.3s-.6 1.6-3.3 3.1c-2.7 1.5-5.3 1.4-5.3 1.4s2.1 1.8 3.9 2.2c0 0-5.4 1.9-6.5 4.5 0 0-2.4-6.9-7.2-8.4 0 0 3.2-.4 4.9-.2 0 0-6.1-4.4-10.4-4.4-.4 0 4.6-1.3 5.1-1.9 0 0-4.9-.1-5.8-2.8l3-.6-1.6-.8c-1.9-.9-3.3-2-3.8-4l-.4-3.6z" fill="#38cbe4" stroke-width="none" opacity="1"></path><path id="SvgjsPath11272" d="M85.6 154s-7.3-1.3-13.4-.1c.6.1 1.7.5 2.7 1.5 1.2 1.1 1.6 2.4 1.8 3-1.3-.8-3-1.6-5.1-2.2-3-.9-7-1.4-10.9.1 0 0 3.8.7 5.5 1.6s-7.5 1.9-11.5.2c0 0 3.2 4 8.3 3.8 0 0-6.3 3.3-7.3 6.1l8.1-2s-5.1 3.9-4.9 9.2c0 0 2.2-3.5 4.5-4.6 0 0-4.2 7.8.7 15.4 0 0-.2-4.4.8-6.6 0 0 0 12.7 10.4 19.1 0 0-1.7-4.2-1.5-6.1 0 0 6.2 11.6 17.6 14.9l-1.9-6.1s3.7 1.3 7.3 4.3c3.6 3 5.4 8.4 5.4 8.4s1.3-6.5-.6-10.1c0 0 3.8 4 4.9 7.4 0 0 1.3-5.4.5-7.5l5.7 7s-1.3-5.3.8-6.8 6.6-5.3 6.6-5.3l-1.3 4.2s4-2.5 6.6-8.1c0 0 .4 2.1 1.3 3.8 0 0 .4-6.2 1.9-8.5s5.9-6.4 6.6-9.3c0 0 .4 4-1.9 7.8 0 0 4.4-3.4 5.1-6.8.8-3.4 1.3-7.4-1.5-11.9 0 0 2.9.4 4.8 3.3 0 0 1.4-5.7-7.1-8.3 0 0 5.1-1.8 5.7-5.9 0 0-4.4 2.9-7.3 2.3s-5.5-.8-5.5-.8 4.5-3.4 6.2-5.5c0 0-7.9 2.8-9.7 1.5l2.4-3s-6.1 1.3-9.5 0c0 0-1.5 2.4-1.8 7.5-.3 5.1-7.8 8.9-7.8 8.9l5.7-.3s-.6 1.6-3.3 3.1c-2.7 1.5-5.3 1.4-5.3 1.4s2.1 1.8 3.9 2.2c0 0-5.4 1.9-6.5 4.5 0 0-2.4-6.9-7.2-8.4 0 0 3.2-.4 4.9-.2 0 0-6.1-4.4-10.4-4.4-.4 0 4.6-1.3 5.1-1.9 0 0-4.9-.1-5.8-2.8l3-.6-1.6-.8c-1.9-.9-3.3-2-3.8-4l-.4-3.6z" fill="#ffffff" stroke-width="none" opacity=".85"></path><path id="SvgjsPath11273" d="M69.5 174.1c.1 2.9 1.6 5.7 3.9 7.3-1.8-2.1-2.8-4.7-2.9-7.3s.8-5.2 2.4-7.5c-2.2 1.7-3.5 4.6-3.4 7.5zM85 191c.3 1.2.2 2.5-.2 3.7-.4 1.2-1.3 2.3-2.5 2.9 1.3-.3 2.5-1.3 3.2-2.6.7-1.3.8-2.8.5-4.2-.3-1.4-1-2.7-1.8-3.8-.9-1.1-1.9-2-3.1-2.7.9 1.1 1.7 2.1 2.4 3.2s1.2 2.3 1.5 3.5zm11.8 5.9c1.3.9 3 1.3 4.6.9-1.5-.4-2.8-.9-4-1.7-1.2-.8-2.3-1.7-3.3-2.9.3 1.5 1.4 2.9 2.7 3.7zm-29.4-34.1c.7.2 1.4.1 2.1-.1.7-.2 1.2-.5 1.8-.9.5-.4 1-.9 1.3-1.4-1.2.5-2.2 1.1-3.3 1.4-.5.2-1.1.3-1.6.2-.6 0-1.1-.2-1.7-.5.2.7.7 1.1 1.4 1.3zm8 27.4c.6 0 1.2-.1 1.7-.5s1-.9 1.1-1.6c.1-.7 0-1.3-.2-1.9l-.3-.9-.3-.8c-.4-1-.8-2.1-1-3.1-.2-1.1-.2-2.2.4-3.2-.5.3-.8.9-1 1.5-.2.6-.2 1.2-.2 1.8 0 1.2.4 2.4.8 3.4.1.3.2.5.4.8l.3.7c.2.5.3 1 .3 1.5 0 1.1-.9 1.9-2 2.3zm56.7-21.8c.1 1.2 0 2.5-.1 3.9.4-.6.7-1.2.9-1.9.2-.7.2-1.4.2-2.1 0-.7-.2-1.4-.5-2-.3-.6-.7-1.2-1.3-1.6.2.7.4 1.3.5 1.9.2.6.3 1.2.3 1.8zm-7.3 13c.2-.8.4-1.5.7-2.2.3-.7.6-1.3 1.1-1.9.5-.6 1.1-1 1.9-1.2-.8-.2-1.7.1-2.4.7s-1.2 1.3-1.5 2.1c-.2.4-.3.8-.4 1.2-.1.4-.2.8-.2 1.2-.1.8 0 1.6.2 2.4.3-.8.4-1.5.6-2.3zm48.9-2.4c-.2-1-.7-2.1-1.3-3-.6-.8-1.3-1.4-2-1.9-.1-.1-.1-.3-.2-.4-.1-.3-.3-.5-.5-.7-.4-.4-.8-.7-1.2-1-.8-.5-1.7-.8-2.5-1-1.7-.4-3.4-.4-5-.4-3.1.1-6.3-.1-9.5-.3-2.6-.2-7.7-.6-9.6-.8-.4-.9-.9-1.7-1.6-2.4-.7-.8-1.6-1.3-2.5-1.8-.5-.2-.9-.4-1.4-.6l-.3-.1c.3-.1.6-.3.9-.5.6-.4 1.2-.8 1.8-1.3.6-.5 1-1.1 1.4-1.8.4-.7.6-1.4.8-2.2l.2-1-.9.6c-.9.6-1.9 1.1-2.9 1.5-1 .4-2 .7-3.1.8-.5 0-.9 0-1.5-.2l-1.7-.3c-.7-.1-1.5-.2-2.2-.3.8-.6 1.6-1.2 2.3-1.9 1.1-.9 2.1-1.8 3-2.9l1.1-1.3-1.7.6c-1.6.5-3.1 1-4.7 1.4-.8.2-1.6.3-2.4.4-.5.1-1.1.1-1.6 0l2-2.5.9-1.1-1.3.3c-1.5.3-3.1.5-4.7.6-1.6.1-3.1 0-4.5-.5l-.4-.1-.2.4c-.9 1.6-1.3 3.2-1.6 4.9-.1.8-.2 1.7-.3 2.5 0 .4-.1.8-.2 1.2-.1.4-.2.8-.4 1.1-.7 1.4-1.8 2.7-3 3.7-1.2 1.1-2.6 2-4 2.8l-1.7.9 1.9-.1 4.9-.2c-.3.4-.7.8-1.1 1.2-.6.5-1.3 1-2 1.4-.7.4-1.5.6-2.3.8-.8.2-1.6.3-2.4.3h-1.1l.8.7c.6.5 1.2.9 1.9 1.4l1.2.6c-1 .4-1.9.8-2.8 1.4-.6.4-1.2.8-1.7 1.2-.3.3-.7.7-1 1.1-.3-.7-.6-1.4-.9-2-.5-.8-1-1.7-1.6-2.4-.6-.8-1.3-1.5-2-2.1-.5-.4-1-.7-1.5-1 .4 0 .9-.1 1.3-.1.8 0 1.6-.1 2.4 0l1 .1-.8-.6c-1.2-.8-2.4-1.5-3.7-2.2-1.3-.6-2.6-1.2-3.9-1.6-.6-.2-1.2-.3-1.9-.4l.2-.1 2-.7c.3-.1.7-.2 1-.4.3-.1.7-.2 1-.5l.4-.3h-.5c-1.1-.1-2.2-.2-3.3-.6-1-.3-1.9-1-2.3-1.9l2.8-.6.3-.1-.3-.2c-1.6-.8-3.4-1.5-4.5-2.9-.6-.7-.9-1.5-1-2.4l-.5-2.7c-1.2-.2-2.2-.3-3.4-.5-1.1-.1-2.2-.2-3.4-.2-2.2-.1-4.5 0-6.7.4l-.7.1.6.2c2 .5 3.6 2.1 4.2 4-1.1-.6-2.2-1.1-3.3-1.6-1.3-.5-2.7-.9-4.1-1.1-2.8-.5-5.7-.4-8.3.7l-.9.3.9.2c1.5.3 2.9.6 4.3 1.1.3.1.7.3 1 .4h.1c-.1 0-.2.1-.2.1-.7.2-1.4.3-2.2.4-1.5.1-3 .2-4.5.1s-3-.3-4.3-.9l-1.3-.5.9 1c.5.6 1.1 1.2 1.8 1.7s1.3.9 2.1 1.2c.7.4 1.5.6 2.3.8.4.1.8.1 1.2.2-1.1.6-2.1 1.2-3.1 2-.7.5-1.3 1-1.9 1.6-.6.6-1.2 1.2-1.5 2.1l-.2.6.7-.2 6.6-1.6c-.3.3-.5.6-.8.8-.6.7-1.2 1.4-1.6 2.2-.5.8-.8 1.7-1.1 2.6-.2.8-.3 1.6-.3 2.4-.7.2-1.3.4-1.4.4-2.9.8-5.8 1.6-8.7 2-1.5.1-3 .4-4.5.8s-2.9.8-4.3 1.3-2.9 1-4.2 1.6c-.7.3-1.4.6-2.1 1.1-.3.2-.7.4-1 .7-.2.2-.5.4-.7.9-.4.1-.6.3-.9.5-.4.3-.7.6-1 .9-.5.7-.9 1.5-1.1 2.3-.2.8-.4 1.7-.4 2.5s.1 1.6.2 2.4c.4 3.1 1.2 6.1 2.1 9.1l1.3 4.4c.5 1.4.7 2.9.9 4.4.4 3 .6 6.1.7 9.1v.9h.9c11.4 0 22.8-.1 34.1-.2 11.4-.1 22.8-.3 34.1-.3 5.7-.1 11.4 0 17.1 0 5.7 0 11.4 0 17.1.1l34.1.4h.7l.1-.7c.6-3.8 1-7.6 1.4-11.4.4-3.8.6-7.7.7-11.5v-5.7c0-1.9.1-3.8.2-5.7.2-2.4.3-4.3-.1-6.4zm-114-6.3c.2-.8.6-1.6 1-2.4s1-1.5 1.5-2.1c.6-.7 1.2-1.3 1.9-1.8l1.4-1.1-1.8.4-7.3 1.8c.2-.4.6-.8.9-1.1.5-.6 1.2-1.1 1.8-1.5 1.3-.9 2.6-1.8 4-2.6l1.2-.7H63c-.8 0-1.5 0-2.3-.2-.7-.1-1.5-.4-2.2-.7s-1.3-.7-2-1.2c-.3-.2-.5-.4-.8-.6 1.1.3 2.2.4 3.2.5 1.5.1 3 .1 4.6-.1.8-.1 1.5-.2 2.3-.4.2-.1.4-.1.6-.4.1-.1.1-.2.1-.4s-.1-.2-.2-.3c-.1-.1-.2-.2-.3-.2-.3-.2-.7-.3-1.1-.5-1.1-.4-2.3-.7-3.5-.9 2.3-.7 4.8-.8 7.1-.4 1.3.2 2.7.6 4 1s2.6 1 3.7 1.7l.4.2-.1-.5c-.3-1.1-.9-2.1-1.7-2.9-.7-.7-1.5-1.2-2.4-1.5 2-.3 4.1-.5 6.1-.4 1.1 0 2.2.1 3.4.2 1.1.1 2.3.2 3.3.4l.5 2.6c.1.9.5 1.8 1 2.5.6.7 1.3 1.3 2.1 1.8.7.4 1.4.8 2.1 1.1l-2.6.5h-.2l.1.2c.4 1.1 1.5 1.9 2.6 2.2.9.3 1.8.5 2.7.6-.4.2-.9.4-1.4.5l-2 .6-1 .3-.1.1h-.1l-.1.1c-.1 0-.1.2-.1.2 0 .1 0 .1.1.1s.1.1.2.1h.8c.7.1 1.4.2 2 .4 2.3.8 4.5 1.9 6.6 3.3h-1.5c-.8 0-1.7.1-2.5.2l-1.3.1 1.2.4c.9.3 1.7.8 2.4 1.4.7.6 1.3 1.3 1.9 2 1.1 1.5 2 3.2 2.7 4.9l.3.8.3-.8c.2-.6.7-1 1.2-1.5.5-.4 1-.8 1.6-1.1 1.1-.7 2.4-1.2 3.6-1.7l1.2-.4-1.2-.3c-1.1-.2-2.1-.8-3-1.5.5-.1 1-.1 1.6-.2.8-.2 1.7-.5 2.5-.9s1.5-.9 2.2-1.4c.7-.6 1.3-1.2 1.7-2.1l.3-.6h-.7l-3.9.2c.9-.6 1.8-1.2 2.7-2 1.3-1.1 2.5-2.4 3.2-4 .2-.4.3-.8.5-1.3.1-.4.2-.9.2-1.3l.3-2.4c.3-1.5.7-3 1.3-4.3 1.5.4 3 .5 4.5.5 1.2-.1 2.4-.2 3.5-.4l-1.6 2-.3.4.4.3c.5.3 1 .4 1.4.4h1.3c.9-.1 1.7-.2 2.5-.4 1-.2 2-.5 3-.8-.5.5-1.1 1-1.6 1.5-1 .9-2.1 1.8-3.2 2.6l-1 .8 1.2.1c1.1.1 2.2.2 3.3.4l1.6.3c.5.1 1.2.2 1.8.2 1.2-.1 2.3-.4 3.4-.9.7-.3 1.4-.6 2-1-.1.3-.2.5-.4.8-.3.6-.8 1.1-1.3 1.5-.5.5-1.1.9-1.6 1.2-.6.4-1.2.7-1.8.9l-1.2.4 1.2.4 1.4.5c.4.2.9.4 1.3.6.8.5 1.7 1 2.3 1.7.7.7 1.2 1.4 1.5 2.3.2.5.3 1 .3 1.5-.4-.5-.9-.9-1.4-1.2-.4-.3-.9-.6-1.4-.8-.5-.2-1-.4-1.5-.5l-1-.2.5.9c.9 1.4 1.6 3 1.9 4.7.3 1.7.2 3.4-.1 5.1-.1.8-.3 1.7-.6 2.5s-.7 1.5-1.2 2.2c-.6.8-1.2 1.5-1.9 2.2.2-.6.4-1.2.5-1.8.2-.7.3-1.4.3-2.1.1-.7.1-1.4 0-2.1l-.2-2.4-.7 2.3c-.4 1.5-1.5 2.9-2.5 4.2-1 1.3-2.2 2.6-3.2 3.9-.3.3-.5.7-.8 1l-.6 1.2c-.3.8-.5 1.7-.7 2.5-.2 1.2-.4 2.5-.5 3.8-.3-.8-.6-1.7-.8-2.5l-.2-1-.4.9c-.7 1.6-1.7 3.1-2.7 4.4-.5.7-1.1 1.3-1.8 1.9-.4.4-.8.8-1.3 1.1l1-3.3.3-.9-.8.6-6.1 4.9c-.3.2-.5.4-.8.6-.3.2-.5.6-.6.9-.3.6-.4 1.3-.4 2-.1 1 0 2 .2 3l-5.1-6.2-.8-1 .4 1.2c.2.6.2 1.2.2 1.8 0 .6 0 1.2-.1 1.9-.1 1-.3 2.1-.5 3.1-.5-1.2-1.2-2.3-1.9-3.3-.9-1.2-1.8-2.4-2.8-3.5l-.9-.9.6 1.1c.8 1.5 1 3.2 1 4.9 0 1.5-.1 3-.3 4.5-.5-1.3-1.1-2.5-1.8-3.7-.8-1.4-1.7-2.6-2.8-3.7-1.2-1.1-2.4-2-3.8-2.8-1.3-.8-2.7-1.5-4.2-2.1l-.4-.1.1.4 1.7 5.7c-1.7-.6-3.4-1.2-4.9-2.2-1.7-1-3.3-2.1-4.7-3.4-1.4-1.3-2.8-2.7-4-4.2-1.2-1.5-2.4-3.1-3.3-4.8l-.5-.8-.1.9c-.1.6 0 1.1.1 1.6s.2 1.1.4 1.6c.2.7.4 1.4.7 2.1-1.2-.9-2.4-1.8-3.4-3-1.2-1.4-2.3-2.9-3.2-4.6-.8-1.6-1.5-3.4-2-5.2-.5-1.8-.8-3.7-.8-5.5l-.1-1.9-.7 1.7c-.4 1.1-.6 2.3-.7 3.4 0 .6-.1 1.2-.1 1.8-.4-.7-.7-1.4-.9-2.2-.2-.6-.3-1.3-.5-1.9-.1-.6-.2-1.3-.2-1.9 0-1.3.1-2.6.4-3.9.3-1.3.7-2.5 1.3-3.7l.6-1.2-1.2.6c-1.1.6-1.9 1.3-2.6 2.1-.4.4-.8.9-1.1 1.4.8.1.9-.2 1-.6zm1.6.3c.4-.4.8-.8 1.2-1.1-.2.7-.4 1.3-.6 2-.4.1-1.1.3-1.8.6.4-.6.7-1.1 1.2-1.5zm7.1 45.5c-4.7-.1-9.4-.1-14.2-.1 0-3-.1-6.1-.5-9.1-.1-.8-.2-1.7-.4-2.5l-.1-.6-.2-.7c-.1-.5-.3-.8-.5-1.2-.8-1.6-1.7-3-2.7-4.4-2-2.8-4.2-5.3-6.6-7.7-1.2-1.2-2.5-2.3-3.8-3.4-1.3-1-2.8-2.1-4.4-2.6 1.4.9 2.6 2.1 3.7 3.3 1.2 1.2 2.2 2.4 3.3 3.7 2.1 2.5 4.2 5.1 6.1 7.8 1 1.3 1.9 2.7 2.6 4.1.2.3.4.7.5 1l.2.5.2.6.6 2.4 1.8 8.8c-6.3 0-12.6-.1-18.9-.1-.1-2.8-.3-5.6-.8-8.4-.2-1.5-.5-3.1-1-4.6l-1.4-4.4c-.9-2.9-1.7-5.9-2.1-8.8-.1-.7-.2-1.5-.2-2.2 0-.7.1-1.4.3-2.1.2-.7.5-1.3.9-1.8.2-.3.4-.5.7-.7.2-.2.6-.3.7-.4l.6-.6s.2-.3.4-.5.5-.4.8-.6c.6-.4 1.2-.7 1.9-1 1.3-.6 2.7-1.2 4.1-1.7 2.8-1 5.6-1.9 8.6-2.2 3-.5 5.9-1.4 8.7-2.4.3-.1.7-.2 1.2-.4v1.1l.8-1.2c.1-.1.1-.2.2-.3.8-.3 1.6-.5 2.2-.7-.3 1.3-.4 2.6-.3 4 0 .7.1 1.4.2 2.1.2.7.3 1.4.5 2 .4 1.3 1 2.6 1.8 3.7l.8 1.3-.1-1.6c0-1.1 0-2.2.1-3.3 0-.3.1-.6.1-1 .2 1.1.4 2.2.7 3.4.5 1.9 1.2 3.6 2.1 5.4.9 1.7 2 3.3 3.3 4.7 1.3 1.5 2.8 2.6 4.4 3.7l.8.6-.4-1c-.4-1-.7-1.9-1-2.9-.2-.5-.3-1-.4-1.5 0-.1 0-.2-.1-.3.8 1.3 1.8 2.6 2.8 3.8 1.3 1.5 2.6 2.9 4.1 4.3 1.5 1.3 3.1 2.5 4.8 3.5 1.7 1 3.6 1.7 5.5 2.3l.4.1-.1-.4-1.8-5.7c1.3.5 2.6 1.2 3.8 1.9 1.3.8 2.6 1.7 3.7 2.8.4.4.8.9 1.2 1.4l1.5 11.4c-10.6-.3-21.2-.4-31.7-.6zm103.5-33.6c-.1 1.9-.2 3.8-.2 5.8v5.7c0 3.8-.3 7.6-.6 11.4-.3 3.6-.7 7.1-1.1 10.7l-18.4.2c1-3.6 1.9-7.2 2.7-10.8.9-3.9 1.7-7.7 2.7-11.6.4-1.9.9-3.9 1.5-5.6.6-1.8 1.5-3.5 2.5-5.2 1-1.6 2.1-3.2 3.4-4.8 1.2-1.5 2.5-3 4-4.4-1.7 1-3.2 2.4-4.7 3.8-1.4 1.4-2.8 2.9-3.9 4.6-1.2 1.6-2.2 3.4-3 5.4-.8 2-1.2 3.9-1.7 5.8-.9 3.9-1.6 7.8-2.2 11.7-.6 3.7-1 7.3-1.3 11.1l-14.9.1c-5.7.1-11.4.1-17.1.1h-12.3l-.6-7.2.1-.5c.3-1.2.5-2.5.7-3.8.1-.6.1-1.3.1-1.9 0-.3 0-.7-.1-1l5.1 6.3.7.8-.2-1c-.3-1.2-.4-2.5-.4-3.8 0-.6.1-1.3.4-1.8.2-.6.7-.9 1.2-1.3l5.4-4.3-1.1 3.2-.3.8.7-.5c.8-.5 1.4-1.1 2.1-1.7.7-.6 1.3-1.3 1.8-2 .9-1.1 1.7-2.4 2.4-3.7.3 1 .6 2 1.1 3l.6 1.1.1-1.2c.1-1.7.3-3.3.7-5 .2-.8.4-1.6.7-2.4.1-.4.3-.7.5-1.1.2-.3.5-.7.7-1 1.1-1.3 2.2-2.6 3.2-3.9.6-.8 1.2-1.6 1.8-2.5-.1.6-.2 1.2-.3 1.9-.3 1.3-.8 2.5-1.5 3.6l-1.3 2.2 1.9-1.6c1.4-1.1 2.6-2.4 3.7-3.9.5-.7 1-1.5 1.3-2.4.3-.9.4-1.8.6-2.6.3-1.8.4-3.6.1-5.4-.2-1.4-.8-2.8-1.4-4 .1 0 .2.1.3.1.4.2.8.4 1.2.7.8.5 1.4 1.2 1.9 2l.6 1 .2-1.1c.1-.5.1-.9.1-1.4 1.7.2 6.3.6 9 .8 3.2.2 6.4.4 9.7.3 1.5 0 3.1.1 4.5.4.7.2 1.4.4 1.9.7.3.2.5.4.7.5.1.1.2.2.2.3 0 .1 0 .1.1.1 0 0 0 .1 0 0l.5.8c.7.5 1.4 1 1.8 1.7.5.6.8 1.4 1 2.2.6 1.7.5 3.6.4 5.5z" fill="#008fa6" stroke-width="none" opacity="1"></path></g><g id="svga-group-head" transform="matrix(1,0,0,1,0,0)"><g id="svga-group-ears-left-move" transform="matrix(1,0,0,1,0,0)"><g id="svga-group-ears-left"><path id="SvgjsPath6770" d="M65.8 98.48s-4.2-8.27-8.66-11.42c-4.46-3.15-9.84-3.15-9.84-3.15s-3.02 2.1-1.97 12.6c0 0 4.46 10.76 12.47 14.7 0 0 5.77 1.31 8.66.66-.01-.01 2.09-6.18-.66-13.39z" fill="#f3d4cf" stroke-width="none" opacity="1"></path><path id="SvgjsPath6771" d="M64.88 101.76s-3.67-7.87-6.04-9.84c-2.36-1.97-7.87-5.12-9.32-3.28-1.44 1.84-1.57 7.61-1.57 7.61s1.57 4.59 6.3 7.09c4.72 2.49 10.37 2.76 10.37 2.76l.26-4.34z" fill="#e4b3ab" stroke-width="none" opacity="1"></path><path id="SvgjsPath6772" d="M44.99 93.25c.02 1.09.09 2.19.17 3.28v.02l.01.03a39.54 39.54 0 0 0 2.2 4.42c.82 1.43 1.75 2.79 2.75 4.11 1.02 1.3 2.15 2.51 3.38 3.64 1.25 1.1 2.62 2.07 4.12 2.83l.04.02.05.01c1.45.31 2.89.55 4.36.7.73.07 1.47.13 2.22.13.74-.01 1.5-.05 2.25-.23l.19-.05.05-.17c.33-1.14.5-2.27.58-3.42.08-1.15.08-2.3-.01-3.44a23.99 23.99 0 0 0-.52-3.38c-.23-1.12-.59-2.2-.99-3.27-.94-1.86-2.02-3.63-3.13-5.4-1.14-1.74-2.35-3.46-3.85-4.95-.75-.74-1.6-1.4-2.5-1.96-.91-.56-1.88-.98-2.87-1.35-1.99-.73-4.08-1.08-6.19-1.12h-.08l-.04.04c-.89.85-1.22 1.93-1.54 2.98-.29 1.06-.45 2.16-.54 3.25-.09 1.09-.13 2.18-.11 3.28zm.33-3.27c.11-1.08.28-2.15.59-3.19.15-.52.35-1.02.59-1.49.23-.44.53-.89.86-1.18 2.01.12 4.01.6 5.9 1.29 1.9.73 3.7 1.74 5.19 3.13 1.5 1.39 2.82 2.99 4.04 4.67 1.22 1.67 2.29 3.46 3.28 5.28.37 1.07.71 2.15.91 3.27.24 1.11.32 2.24.36 3.37.04 1.13-.04 2.26-.19 3.37-.14 1.04-.35 2.09-.65 3.07-.62.1-1.26.12-1.91.1-.71-.01-1.43-.06-2.14-.14-1.41-.15-2.83-.4-4.21-.7-1.39-.74-2.72-1.62-3.93-2.66-1.2-1.07-2.33-2.24-3.35-3.49a42.391 42.391 0 0 1-2.82-3.96c-.86-1.37-1.66-2.79-2.33-4.25l-.16-1.59c-.05-.54-.06-1.09-.09-1.63-.04-1.1-.03-2.18.06-3.27z" fill="#e4b3ab" stroke-width="none" opacity="1"></path><path id="SvgjsPath6773" d="M49.2 91.53c.18-.69.39-1.36.67-2.03.07-.16.16-.33.26-.48.11-.15.23-.33.48-.37.45.02.72.22 1.06.37a18.3 18.3 0 0 1 3.48 2.44c.53.48 1.03 1.01 1.42 1.66.18.33.36.69.38 1.14.01.25-.01.36-.01.54l.01.51c.16 2.77.58 5.56.83 8.36l-.07.01c-.34-1.37-.61-2.75-.86-4.13-.26-1.39-.44-2.78-.55-4.2l-.03-.54v-.51c0-.26-.13-.56-.28-.84-.31-.57-.74-1.11-1.21-1.61-.94-1-2.01-1.94-3.22-2.61-.29-.16-.65-.33-.91-.33-.23.06-.41.43-.53.73-.26.63-.39 1.33-.52 2.01-.23 1.37-.39 2.77-.48 4.15-.02.34-.04.7-.02 1.01-.01.17.21.46.41.71.42.52.91 1.02 1.4 1.5.81.79 1.65 1.57 2.5 2.33.09-.91.18-1.82.24-2.74.04-.59.07-1.17.08-1.75.01-.53.01-1.07-.06-1.58-.15-.02-.33-.03-.5-.02a4.1 4.1 0 0 0-.69.1c-.46.1-.91.25-1.35.43l-.03-.07c.41-.25.85-.46 1.32-.62.23-.08.47-.15.72-.19.26-.04.49-.07.79-.01l.11.02.03.13c.15.61.18 1.21.22 1.81.02.6.02 1.19.01 1.79-.03 1.19-.08 2.37-.19 3.56l-.07.75-.58-.49c-1.08-.92-2.11-1.87-3.11-2.88-.49-.51-.98-1.03-1.43-1.61-.11-.15-.22-.3-.32-.47-.05-.09-.1-.18-.14-.29-.05-.11-.07-.28-.07-.37-.01-.39.03-.74.06-1.1.14-1.45.39-2.84.75-4.22z" fill="#c5796d" stroke-width="none" opacity="1"></path></g></g><g id="svga-group-ears-right-move" transform="matrix(1,0,0,1,0,0)"><g id="svga-group-ears-right"><path id="SvgjsPath6774" d="M134.2 98.48s4.2-8.27 8.66-11.42c4.46-3.15 9.84-3.15 9.84-3.15s3.02 2.1 1.97 12.6c0 0-4.46 10.76-12.47 14.7 0 0-5.77 1.31-8.66.66.01-.01-2.09-6.18.66-13.39z" fill="#f3d4cf" stroke-width="none" opacity="1"></path><path id="SvgjsPath6775" d="M135.12 101.76s3.67-7.87 6.04-9.84c2.36-1.97 7.87-5.12 9.32-3.28 1.44 1.84 1.57 7.61 1.57 7.61s-1.57 4.59-6.3 7.09c-4.72 2.49-10.37 2.76-10.37 2.76l-.26-4.34z" fill="#e4b3ab" stroke-width="none" opacity="1"></path><path id="SvgjsPath6776" d="M154.91 89.96c-.09-1.09-.25-2.18-.54-3.25-.32-1.05-.65-2.13-1.54-2.98l-.04-.04h-.08c-2.11.04-4.21.39-6.19 1.12-.99.37-1.96.79-2.87 1.35-.9.56-1.75 1.22-2.5 1.96-1.5 1.49-2.71 3.21-3.85 4.95-1.11 1.77-2.18 3.54-3.13 5.4-.39 1.07-.76 2.15-.99 3.27a23.99 23.99 0 0 0-.52 3.38c-.1 1.14-.09 2.29-.01 3.44s.25 2.28.58 3.42l.05.17.19.05c.75.18 1.51.22 2.25.23.75 0 1.48-.05 2.22-.13 1.47-.15 2.91-.39 4.36-.7l.05-.01.04-.02c1.5-.76 2.87-1.73 4.12-2.83 1.23-1.12 2.36-2.34 3.38-3.64 1-1.31 1.93-2.68 2.75-4.11.82-1.43 1.57-2.89 2.2-4.42l.01-.03v-.02c.07-1.09.14-2.18.17-3.28.01-1.09-.03-2.18-.11-3.28zm-.16 3.28c-.03.54-.04 1.09-.09 1.63l-.16 1.59c-.67 1.47-1.47 2.89-2.33 4.25-.87 1.37-1.8 2.7-2.82 3.96a29.855 29.855 0 0 1-3.35 3.49 21.554 21.554 0 0 1-3.93 2.66c-1.38.3-2.8.54-4.21.7-.71.08-1.43.13-2.14.14-.64.01-1.29 0-1.91-.1-.3-.98-.51-2.03-.65-3.07-.15-1.11-.22-2.24-.19-3.37.04-1.13.12-2.26.36-3.37.2-1.12.54-2.2.91-3.27.98-1.82 2.05-3.61 3.28-5.28 1.21-1.67 2.54-3.28 4.04-4.67 1.49-1.39 3.28-2.4 5.19-3.13 1.88-.69 3.89-1.17 5.9-1.29.34.29.63.74.86 1.18.25.47.44.97.59 1.49.3 1.03.48 2.11.59 3.19.08 1.1.09 2.18.06 3.27z" fill="#e4b3ab" stroke-width="none" opacity="1"></path><path id="SvgjsPath6777" d="M150.8 91.53c-.18-.69-.39-1.36-.67-2.03-.07-.16-.16-.33-.26-.48-.11-.15-.23-.33-.48-.37-.45.02-.72.22-1.06.37a18.3 18.3 0 0 0-3.48 2.44c-.53.48-1.03 1.01-1.42 1.66-.18.33-.36.69-.38 1.14-.01.25.01.36.01.54l-.01.51c-.16 2.77-.58 5.56-.83 8.36l.07.01c.34-1.37.61-2.75.86-4.13.26-1.39.44-2.78.55-4.2l.03-.54v-.51c0-.26.13-.56.28-.84.31-.57.74-1.11 1.21-1.61.94-1 2.01-1.94 3.22-2.61.29-.16.65-.33.91-.33.23.06.41.43.53.73.26.63.39 1.33.52 2.01.23 1.37.39 2.77.48 4.15.02.34.04.7.02 1.01.01.17-.21.46-.41.71-.42.52-.91 1.02-1.4 1.5-.81.79-1.65 1.57-2.5 2.33-.09-.91-.18-1.82-.24-2.74-.04-.59-.07-1.17-.08-1.75-.01-.53-.01-1.07.06-1.58.15-.02.33-.03.5-.02.23.01.46.05.69.1.46.1.91.25 1.35.43l.03-.07c-.41-.25-.85-.46-1.32-.62a4.23 4.23 0 0 0-.72-.19c-.26-.04-.49-.07-.79-.01l-.11.02-.03.13c-.15.61-.18 1.21-.22 1.81-.02.6-.02 1.19-.01 1.79.03 1.19.08 2.37.19 3.56l.07.75.58-.49c1.08-.92 2.11-1.87 3.11-2.88.49-.51.98-1.03 1.43-1.61.11-.15.22-.3.32-.47.05-.09.1-.18.14-.29.05-.11.07-.28.07-.37.01-.39-.03-.74-.06-1.1a26.8 26.8 0 0 0-.75-4.22z" fill="#c5796d" stroke-width="none" opacity="1"></path></g></g><g id="svga-group-faceshape-wrap"><g id="svga-group-faceshape-single"><path id="SvgjsPath5459" d="M135.9 49.8c-6.7-7.4-11.3-13.2-28.8-17.3-1.8-.4-12.3-.4-14.1 0-17.5 4.1-22.1 9.9-28.8 17.3-7.1 7.8-9.5 29-9.5 29 0 9.6 1.3 32.3 13.3 47.2 17.8 22.2 32.1 22.3 32.1 22.3s14.2 0 32.1-22.3c12-14.9 13.3-37.6 13.3-47.2-.1 0-2.5-21.2-9.6-29z" fill="#f3d4cf" stroke-width="none" opacity="1" stroke="none"></path><path id="SvgjsPath5460" d="M107.1 32.5c-1.8-.4-12.3-.4-14.1 0-17.5 4.1-22.1 9.9-28.8 17.3-7.1 7.8-9.5 29-9.5 29 0 9.6 1.3 32.3 13.3 47.2 17.8 22.2 32.1 22.3 32.1 22.3s14.2 0 32.1-22.3c12-14.9 13.3-37.6 13.3-47.2 0 0-2.4-21.2-9.5-29-6.9-7.4-11.5-13.2-28.9-17.3zM142 63.8c.7 2.5 1.1 5 1.6 7.5.4 2.5.7 5 1 7.5-.2 7.4-1.3 14.8-3 22-.9 3.6-1.9 7.1-3.3 10.5-.7 1.7-1.4 3.4-2.2 5s-1.7 3.2-2.7 4.7l-1.5 2.2c-.3.4-3.4 4.2-3.4 4.2l-3.7 4.1-6.1 5.7c-2.8 2.3-5.8 4.5-9 6.2l-1.2.6-1.2.6c-.8.4-1.6.7-2.5 1l-1.3.4c-.4.1-.8.2-1.3.3-.4.1-1.71.43-2.9.4 0 0-1.4-.2-1.9-.3-.4-.1-.9-.2-1.3-.3l-1.3-.4c-.8-.3-1.7-.6-2.5-1l-1.2-.5-1.2-.6c-3.2-1.6-6.3-3.7-9.1-6l-4.1-3.6-3.9-3.9-1-1-.9-1-1.8-2.1c-1.2-1.4-2.3-2.8-3.3-4.4-1-1.5-2-3.1-2.8-4.8-.8-1.6-1.6-3.3-2.3-5.1-.7-1.7-1.3-3.5-1.8-5.3s-1-3.6-1.4-5.4-.8-3.6-1-5.5c-.3-1.8-.5-3.7-.7-5.5-.4-3.7-.5-7.4-.5-11.1.3-2.3.8-4.6 1.2-6.9.5-2.3 1.1-4.6 1.7-6.8.7-2.2 1.4-4.5 2.3-6.6.4-1.1.9-2.1 1.4-3.1s2.59-4.47 6.3-8.1c1.6-1.7 3.3-3.3 5-4.7 3.5-2.8 7.7-4.9 12-6.5l1.6-.6c6.69-2.31 10.6-2.2 11.8-2.3 2.3-.1 4.71-.26 7-.1 3.16.22 6.8 1.4 6.8 1.4 2.3.6 4.5 1.3 6.7 2.3.3.1 1.6.7 1.6.7.5.3 2.6 1.3 3.1 1.7.5.3 5.3 3.7 6.9 5.4 1.7 1.7 3.3 3.4 4.9 5.2 1.7 1.9 2.9 4.2 3.9 6.6 1.1 2.4 1.9 4.8 2.5 7.3z" fill="#c5796d" stroke-width="none" opacity="1" stroke="none"></path></g></g><g id="svga-group-mouth-single-move" transform="matrix(1,0,0,1,0,0)"><g id="svga-group-mouth-single"><path id="SvgjsPath6354" d="M83.37 118.08s7.34 2.64 14.23 1.87c0 0 1.3 1.45 2.1 1.59s2.44-1.4 2.44-1.4 3.77 1.01 6.26.92 7.8-.63 10.24-2.12c0 0-3.89 8.66-7.39 12.12-3.5 3.46-11.34 6.02-18 3.71-6.65-2.31-9.48-15.12-9.88-16.69z" fill="#da7c87" stroke-width="none" opacity="1" stroke="none"></path><path id="SvgjsPath6355" d="M84.44 119.22s4.71 11.74 9.64 13.5c4.93 1.76 10.14 1.49 14.43-2 4.3-3.49 8.5-10.57 8.5-10.57s-9.98 2.35-17.59 1.92c-7.6-.43-15.2-2.67-14.98-2.85z" fill="#000000" stroke-width="none" opacity="1"></path><path id="SvgjsPath6356" d="M99.43 122.07c-7.32-.42-14.62-2.5-14.97-2.82.1.24.83 2.03 1.97 4.23 1.33.92 2.92 1.88 4.46 2.41l.84-1.34-.22 1.45s4.59 1.56 9.05 2.02c4.46.46 10.27-1.12 10.27-1.12l.41-1.05.12.75s.48-.04 1.51-.49c2.4-3.03 4.15-5.98 4.15-5.98s-9.99 2.37-17.59 1.94z" fill="#ffffff" stroke-width="none" opacity="1"></path></g></g><g id="svga-group-eyes-left-move" transform="matrix(1,0,0,1,0,0)"><g id="svga-group-eyes-left"><g id="svga-group-eyesback-left"><path id="SvgjsPath7888" d="M80.2 77.2c7.5 0 13.5 5.8 13.5 13s-6 13-13.5 13-13.5-5.8-13.5-13 6-13 13.5-13z" fill="#ffffff" stroke-width="none" opacity="1"></path></g><g id="svga-group-eyesiriswrapper-left" transform="matrix(1,0,0,1,0,0)"><g id="svga-group-eyesiriscontrol-left" transform="matrix(1,0,0,1,0,0)"><g id="svga-group-eyesiris-left"><path id="SvgjsPath8602" d="M80.2 84.9c2.9 0 5.3 2.4 5.3 5.3s-2.4 5.3-5.3 5.3-5.3-2.4-5.3-5.3 2.4-5.3 5.3-5.3z" fill="#4e60a3" stroke-width="none" opacity="1"></path><path id="SvgjsPath8603" d="M80.2 85.2c2.8 0 5 2.2 5 5s-2.2 5-5 5-5-2.2-5-5 2.2-5 5-5m0-.6c-3.1 0-5.6 2.5-5.6 5.6s2.5 5.6 5.6 5.6 5.6-2.5 5.6-5.6c0-3.1-2.5-5.6-5.6-5.6z" fill="#253984" stroke-width="none" opacity="1"></path><path id="SvgjsPath8604" d="M82.9 85.6c-.1.3-.3.7-.5 1s-.4.6-.7.9c.1-.3.3-.7.5-1 .2-.4.4-.7.7-.9zm.7.6-.6.9c-.2.3-.5.6-.8.8l.6-.9c.3-.3.5-.6.8-.8zm-.9 2.1c.2-.3.4-.5.7-.7.2-.2.5-.4.8-.6-.2.3-.4.5-.7.7-.2.2-.5.4-.8.6zm.3.6c.3-.2.6-.3.9-.4s.6-.2 1-.3c-.3.2-.6.3-.9.4s-.7.2-1 .3zm.3.5.9-.3c.3-.1.6-.1.9-.1l-.9.3c-.3.1-.6.1-.9.1zm.1.7c.2 0 .3-.1.5-.1h.5c.3 0 .6.1.9.2-.3.1-.6 0-.9 0-.2 0-.3 0-.5-.1-.2.1-.3.1-.5 0zm-.2.6c.3 0 .7.1 1 .1l.9.3c-.3 0-.7-.1-1-.1-.2 0-.5-.1-.9-.3zm0 .8c.2 0 .3.1.4.1s.3.1.4.2c.3.1.5.3.8.5-.3-.1-.6-.2-.8-.3-.1-.1-.3-.1-.4-.2-.1-.2-.3-.2-.4-.3zm-.5.8c.3.1.5.3.8.4.2.2.5.3.7.6-.3-.1-.5-.3-.8-.4-.3-.2-.5-.4-.7-.6zm-.9-7.1c0 .3-.1.7-.2 1s-.2.7-.4 1c0-.3.1-.7.2-1 .1-.3.2-.6.4-1zM80.5 87c-.1-.3 0-.7 0-1s.1-.7.2-1c.1.3 0 .7 0 1-.1.3-.1.7-.2 1zm-1.2-2c.1.3.2.7.3 1s.1.7.1 1c-.1-.3-.2-.7-.3-1 0-.2-.1-.3-.1-.5V85zm-1.1.4c.2.3.3.6.4.9s.2.7.3 1c-.2-.3-.3-.6-.4-.9-.2-.3-.3-.7-.3-1zm-.9.5c.3.2.5.5.7.8s.4.6.5.9c-.3-.2-.5-.5-.7-.8-.2-.2-.4-.5-.5-.9zm-1.1.9c.3.2.7.4 1 .7.3.2.6.5.9.8-.3-.2-.7-.4-1-.7-.3-.2-.6-.5-.9-.8zm-.3 1c.3.1.5.2.8.3.2.2.5.3.7.5-.3-.1-.5-.2-.8-.3-.2-.1-.5-.2-.7-.5zm-.4 1.1c.3 0 .5 0 .8.1.2.1.5.1.7.3-.3 0-.5 0-.8-.1-.3-.1-.5-.1-.7-.3zm-.3 1.2c.3-.1.6-.1.9-.1s.6 0 .9.1c-.3.1-.6.1-.9.1-.3 0-.6 0-.9-.1zm.2.9c.2-.1.5-.2.8-.2.3-.1.5-.1.8-.1-.2.1-.5.2-.8.2-.3.1-.6.1-.8.1zm0 1c.3-.2.6-.3.9-.4s.6-.2.9-.2c-.3.2-.6.3-.9.4-.2.1-.6.1-.9.2zm.5.8c.2-.2.5-.3.8-.5l.9-.3c-.2.2-.5.3-.8.5s-.6.3-.9.3zm.9 1c.1-.2.3-.4.5-.7.2-.2.4-.4.6-.5-.1.2-.3.4-.5.7-.2.2-.4.4-.6.5zm.9.8c.1-.3.2-.7.4-1s.3-.6.6-.9c-.1.3-.2.7-.4 1-.2.4-.4.7-.6.9zm1.1.4c0-.3 0-.6.1-.8.1-.3.2-.5.3-.8 0 .3 0 .6-.1.8 0 .3-.1.6-.3.8zm2.8-1.8c.2.2.3.5.3.8.1.3.2.5.2.8-.2-.2-.3-.5-.3-.8-.1-.2-.2-.5-.2-.8zm.7-.3c.2.2.4.4.5.6.2.2.3.4.4.7-.2-.2-.4-.4-.5-.6-.2-.3-.3-.5-.4-.7zm-1.5.6c.1.2.1.5.2.8v.8c-.1-.2-.1-.5-.2-.8 0-.3-.1-.6 0-.8zm-.7 0c.1.3.1.5.1.8s0 .5-.1.8c-.1-.3-.1-.5-.1-.8 0-.2 0-.5.1-.8z" fill="#253984" stroke-width="none" opacity="1"></path><path id="SvgjsPath8605" d="M80.2 87.2c1.7 0 3 1.3 3 3s-1.3 3-3 3-3-1.3-3-3 1.3-3 3-3z" fill="#000000" stroke-width="none" opacity="1"></path><path id="SvgjsPath8606" d="m79.5 87.8-.6-.6c-.2-.2-.5-.3-.8-.3s-.6.1-.8.3c-.2.2-.3.5-.3.8s.1.6.3.8l.6.6c.2.2.5.3.8.3s.6-.1.8-.3c.4-.6.4-1.2 0-1.6zm2.7 5.1c1 0 1-1.5 0-1.5-.9 0-.9 1.5 0 1.5z" fill="#ffffff" stroke-width="none" opacity="1"></path></g></g></g><g id="svga-group-eyesfront-left"><path id="SvgjsPath7896" d="M80.2 76.7c-7.8 0-14.1 6.1-14.1 13.6s6.3 13.6 14.1 13.6 14.1-6.1 14.1-13.6S88 76.7 80.2 76.7zm-4 19.2c-4.4-1.5-5.8-6.1-6.6-9.2-.8-3.2 12.5-3.2 16-.4s4.8 6.7 5 8.7c0 0-10 2.5-14.4.9z" fill="#f3d4cf" stroke-width="none" opacity="1"></path><path id="SvgjsPath7897" d="M90.7 95v-.2c0-.5-.1-1-.3-1.4-.1-.3-.2-.6-.2-.9-.5-1.8-1.3-4.1-2.7-5.6-1.1-1.2-3.7-4-8.2-4s-7.9 1.6-8.4 1.8c-.9.4-2.5 2.3-2.5 2.3s.4-.1 1.1-.3c0 .1 0 .2.1.3.1.3.2.6.2.8.2.5.3 1.1.5 1.6.4 1.1.9 2.1 1.5 3.1.6.9 1.4 1.8 2.3 2.5s2 1.2 3.1 1.4c2.3.4 4.6.2 6.8 0 2.2-.3 4.4-.7 6.7-1.4-.1 0-.1 0 0 0 0-.1 0 0 0 0zm-.1 0c-2.2.4-4.4.8-6.7 1-1.1.1-2.2.2-3.3.2-1.1 0-2.2 0-3.3-.2-2.2-.4-4.1-1.8-5.3-3.7-.6-.9-1.1-2-1.4-3-.2-.5-.3-1.1-.5-1.6-.1-.3-.1-.5-.2-.8 0-.1-.1-.2-.1-.3 2.2-.6 6.6-1.8 9.6-1.8 4.1.1 7.2 3.3 8.4 4.6 1.1 1.1 2.4 4.4 2.8 5.3v.3z" fill="#000000" stroke-width="none" opacity="1"></path></g></g></g><g id="svga-group-eyes-right-move" transform="matrix(1,0,0,1,0,0)"><g id="svga-group-eyes-right"><g id="svga-group-eyesback-right"><path id="SvgjsPath7889" d="M119.8 77.2c7.5 0 13.5 5.8 13.5 13s-6 13-13.5 13-13.5-5.8-13.5-13 6-13 13.5-13z" fill="#ffffff" stroke-width="none" opacity="1"></path></g><g id="svga-group-eyesiriswrapper-right" transform="matrix(1,0,0,1,0,0)"><g id="svga-group-eyesiriscontrol-right" transform="matrix(1,0,0,1,0,0)"><g id="svga-group-eyesiris-right"><path id="SvgjsPath8607" d="M119.8 85.6c2.5 0 4.6 2.1 4.6 4.6s-2.1 4.6-4.6 4.6-4.6-2.1-4.6-4.6 2.1-4.6 4.6-4.6z" fill="#4e60a3" stroke-width="none" opacity="1"></path><path id="SvgjsPath8608" d="M119.8 85.8c2.4 0 4.4 2 4.4 4.4s-2 4.4-4.4 4.4-4.4-2-4.4-4.4 2-4.4 4.4-4.4m0-.5c-2.7 0-4.9 2.2-4.9 4.9s2.2 4.9 4.9 4.9 4.9-2.2 4.9-4.9-2.2-4.9-4.9-4.9z" fill="#253984" stroke-width="none" opacity="1"></path><path id="SvgjsPath8609" d="M122.1 86.1c-.1.3-.3.6-.4.9-.2.3-.4.5-.6.8.1-.3.3-.6.4-.9.2-.3.4-.5.6-.8zm.7.6c-.2.3-.3.6-.6.8-.2.2-.4.5-.7.7.2-.3.3-.6.6-.8.2-.3.5-.5.7-.7zm-.8 1.8.6-.6c.2-.2.4-.3.7-.5l-.6.6c-.2.2-.4.4-.7.5zm.2.5c.3-.2.5-.3.8-.4s.6-.2.9-.2c-.2.2-.5.3-.8.4-.3.1-.6.2-.9.2zm.3.5c.3-.1.5-.2.8-.2.3-.1.5-.1.8-.1-.3.1-.5.2-.8.2-.2.1-.5.1-.8.1zm.1.6c.1 0 .3 0 .4-.1h.4c.3 0 .5.1.8.2h-.8c-.1 0-.3 0-.4-.1-.1.1-.2.1-.4 0zm-.1.6c.3 0 .6.1.8.1.3.1.6.2.8.3-.3 0-.6-.1-.8-.1-.3-.1-.6-.2-.8-.3zm-.1.6c.1 0 .2.1.4.1.1.1.2.1.4.2s.5.3.7.4c-.3-.1-.5-.2-.7-.3-.1-.1-.2-.1-.3-.2-.2 0-.3-.1-.5-.2zm-.4.7c.2.1.4.2.7.4.2.2.4.3.6.5-.2-.1-.5-.2-.7-.4-.2-.1-.4-.3-.6-.5zm-.8-6.1c0 .3-.1.6-.2.9s-.2.6-.3.8c0-.3.1-.6.2-.9 0-.3.1-.6.3-.8zm-1.2 1.5v-.9c0-.3.1-.6.2-.9v.9c0 .3-.1.6-.2.9zm-1-1.7c.1.3.2.6.2.9.1.3.1.6.1.9-.1-.3-.2-.6-.2-.9 0-.2-.1-.3-.1-.4v-.5zm-1 .3c.2.3.3.6.4.8.1.3.2.6.2.9-.2-.3-.3-.6-.4-.8 0-.3-.1-.6-.2-.9zm-.8.5c.2.2.4.5.6.7s.3.5.4.8c-.2-.2-.4-.5-.6-.7-.1-.3-.2-.5-.4-.8zm-.9.7c.3.2.6.4.8.6s.5.5.8.7c-.3-.2-.6-.4-.8-.6-.3-.2-.5-.4-.8-.7zm-.2.9c.2.1.5.2.7.3.2.1.4.3.6.4-.2-.1-.5-.2-.7-.3-.3 0-.5-.2-.6-.4zm-.4 1c.2 0 .4 0 .7.1.2.1.4.1.6.2-.2 0-.4 0-.7-.1-.2 0-.4-.1-.6-.2zm-.2 1c.2-.1.5-.1.8-.1s.5 0 .8.1c-.2.1-.5.1-.8.1s-.6 0-.8-.1zm.1.8c.2-.1.4-.2.7-.2.2 0 .5-.1.7-.1-.2.1-.4.2-.7.2-.2.1-.5.1-.7.1zm0 .8c.2-.1.5-.2.8-.3s.5-.1.8-.2c-.2.1-.5.2-.8.3-.2.2-.5.2-.8.2zm.5.8c.2-.2.4-.3.7-.4s.5-.2.8-.3c-.2.2-.4.3-.7.4-.3.2-.6.3-.8.3zm.7.8c.1-.2.3-.4.4-.6l.5-.5c-.1.2-.3.4-.4.6-.1.3-.3.4-.5.5zm.8.8c.1-.3.2-.6.4-.8s.3-.5.5-.8c-.1.3-.2.6-.4.8-.2.3-.3.5-.5.8zm1 .3c0-.2 0-.5.1-.7s.1-.5.3-.7c0 .2 0 .5-.1.7s-.2.5-.3.7zm2.4-1.6c.1.2.2.4.3.7s.1.5.2.7c-.1-.2-.2-.4-.3-.7-.1-.2-.2-.4-.2-.7zm.6-.2.5.5.3.6-.5-.5-.3-.6zm-1.3.5c.1.2.1.4.1.7v.7c-.1-.2-.1-.4-.1-.7v-.7zm-.6 0c.1.2.1.5.1.7s0 .5-.1.7c-.1-.2-.1-.5-.1-.7s0-.5.1-.7z" fill="#253984" stroke-width="none" opacity="1"></path><path id="SvgjsPath8610" d="M119.8 87.6c1.4 0 2.6 1.2 2.6 2.6s-1.2 2.6-2.6 2.6-2.6-1.2-2.6-2.6 1.2-2.6 2.6-2.6z" fill="#000000" stroke-width="none" opacity="1"></path><path id="SvgjsPath8611" d="m119.2 88.1-.5-.5c-.2-.2-.4-.3-.7-.3-.2 0-.5.1-.7.3-.2.2-.3.4-.3.7s.1.5.3.7l.5.5c.2.2.4.3.7.3.2 0 .5-.1.7-.3.3-.5.3-1.1 0-1.4zm2.4 4.4c.8 0 .8-1.3 0-1.3-.9 0-.9 1.3 0 1.3z" fill="#ffffff" stroke-width="none" opacity="1"></path></g></g></g><g id="svga-group-eyesfront-right"><path id="SvgjsPath7898" d="M119.8 76.7c-7.8 0-14.1 6.1-14.1 13.6s6.3 13.6 14.1 13.6 14.1-6.1 14.1-13.6-6.3-13.6-14.1-13.6zm4.4 18.2c-4 1.6-13.7.1-13.7.1.1-1.8 1.2-5.3 4.3-7.9s15.7-3.4 15.1-.6c-.5 2.8-1.7 6.8-5.7 8.4z" fill="#f3d4cf" stroke-width="none" opacity="1"></path><path id="SvgjsPath7901" d="M130.2 86.6s0-1.2-.8-1.5c-.6-.2-4-.9-8.3-.7-2.4.1-4.2 1-5.5 1.9-.3.1-.5.3-.8.5-.8.7-1.6 1.5-2.2 2.3-1 1.4-1.7 2.9-2 4.6-.3 1.1-.3 1.9-.3 1.9s.1-.2.2-.6c2.1.4 4.1.6 6.2.8 1 .1 2.1.1 3.1 0 1.1 0 2.1-.1 3.1-.4 1-.2 2-.7 2.9-1.3.9-.6 1.6-1.4 2.2-2.3.6-.9 1-1.8 1.3-2.8.2-.5.3-1 .4-1.5l.2-.8v-.2c.2.1.3.1.3.1zm-.4.1-.2.8c-.1.5-.2 1-.4 1.5-.3 1-.7 1.9-1.3 2.8-1.1 1.7-3 2.9-5 3.3-.5.1-1 .2-1.5.2s-1 .1-1.6.1c-1 .1-2.1 0-3.1 0-2.1-.1-4.1-.2-6.2-.4.5-1.3 1.5-4.1 2.4-5.1 1.1-1.3 3.8-4.1 7.7-4.4 3.3-.2 7.8.8 9.1 1.1.1-.1.1 0 .1.1z" fill="#000000" stroke-width="none" opacity="1"></path></g></g></g><g id="svga-group-facehighlight-single"></g><g id="svga-group-eyebrows-left-move" transform="matrix(1,0,0,1,0,0)"><g id="svga-group-eyebrows-left-rotate" transform="matrix(1,1.7453292519943295e-9,-1.7453292519943295e-9,1,1.2995914744351467e-7,-1.3809918186780124e-7)"><g id="svga-group-eyebrows-left"><path id="SvgjsPath8726" d="M63.58 81.61s2.73-6.07 7.31-8.29c5.98-2.9 21.19 2.04 22.07 2.67.87.63.35 3.77-1.13 3.92-1.48.15-8.53-2.96-13.8-4.33-5.27-1.38-9.96 0-14.45 6.03z" fill="#2a232b" stroke-width="none" opacity="1"></path><path id="SvgjsPath8727" d="M63.57 81.64c.12-.13.26-.26.39-.42l.37-.43c.24-.28.49-.55.74-.81.5-.52 1.02-1.03 1.58-1.49 1.09-.93 2.31-1.71 3.61-2.24 1.3-.53 2.7-.8 4.1-.78 1.41.01 2.8.26 4.18.67 2.78.78 5.52 1.77 8.27 2.72 1.38.47 2.75.96 4.22 1.28.19.03.37.07.57.07.2.01.44-.01.64-.1.41-.18.69-.52.88-.87.2-.35.32-.73.4-1.12.08-.39.1-.79.05-1.2-.03-.2-.07-.4-.16-.61-.08-.2-.23-.4-.44-.51-.36-.18-.7-.28-1.05-.41-.7-.23-1.39-.45-2.09-.66a90.5 90.5 0 0 0-4.22-1.12c-2.83-.68-5.67-1.3-8.59-1.47-1.45-.08-2.93-.04-4.37.27-.72.16-1.44.39-2.11.75-.66.35-1.28.77-1.85 1.24-1.14.95-2.13 2.09-2.98 3.3-.43.6-.82 1.25-1.18 1.9-.18.33-.35.66-.52.99-.08.17-.16.34-.24.5l-.11.26-.06.13-.02.06-.01.03-.01.02c-.01.01-.01.04.01.05zm.03-.07c1.45-2.5 3.19-4.99 5.44-6.73.56-.43 1.16-.82 1.78-1.13.61-.32 1.28-.52 1.97-.67 1.37-.27 2.8-.32 4.23-.3 1.43.02 2.86.15 4.29.34 1.43.18 2.85.43 4.27.75 1.42.32 2.81.7 4.2 1.13.69.21 1.39.45 2.06.71.33.13.68.27.98.42.24.13.34.5.36.84.04.7-.13 1.44-.48 2.02-.17.29-.41.53-.67.62-.13.05-.26.06-.42.05-.15-.01-.33-.05-.5-.09-.68-.16-1.37-.39-2.05-.62L87 78.17c-2.74-.99-5.47-2.05-8.3-2.83-1.41-.39-2.9-.66-4.37-.62-1.48.03-2.95.36-4.3.96-1.35.59-2.56 1.49-3.64 2.5-.55.5-1.04 1.05-1.51 1.62-.23.29-.47.57-.69.87-.11.14-.24.3-.31.44-.08.14-.16.31-.28.46z" fill="#1b141c" stroke-width="none" opacity="1"></path></g></g></g><g id="svga-group-eyebrows-right-move" transform="matrix(1,0,0,1,0,0)"><g id="svga-group-eyebrows-right-rotate" transform="matrix(1,1.7453292519943295e-9,-1.7453292519943295e-9,1,1.365545756470965e-7,-2.1299837271726574e-7)"><g id="svga-group-eyebrows-right"><path id="SvgjsPath8728" d="M136.97 82.09s-2.84-5.43-7.28-7.34c-5.81-2.49-20.12 2.3-20.92 2.88s-.19 3.42 1.23 3.52c1.41.1 8-2.86 12.98-4.22 4.95-1.34 9.48-.19 13.99 5.16z" fill="#2a232b" stroke-width="none" opacity="1"></path><path id="SvgjsPath8729" d="m137 82.06-.01-.02-.02-.03-.03-.06-.06-.12-.12-.23c-.08-.15-.16-.31-.25-.45-.18-.3-.35-.59-.54-.88-.37-.59-.77-1.15-1.2-1.69-.86-1.08-1.84-2.09-2.97-2.92-.56-.41-1.17-.78-1.81-1.09-.64-.31-1.34-.49-2.04-.63-1.39-.25-2.8-.25-4.18-.15-2.77.22-5.46.84-8.13 1.51-1.33.35-2.66.7-3.97 1.1-.66.2-1.31.41-1.96.64-.33.12-.64.22-.98.39-.2.1-.33.29-.4.47s-.11.37-.13.56a3.636 3.636 0 0 0 .52 2.1c.2.32.48.61.88.77.19.07.42.1.62.08.19-.01.37-.04.54-.09 1.38-.32 2.67-.79 3.96-1.25 2.58-.92 5.16-1.87 7.78-2.64 1.3-.4 2.61-.65 3.96-.69 1.33-.04 2.68.17 3.93.62 1.26.45 2.45 1.13 3.53 1.95.54.41 1.06.86 1.56 1.32.25.23.49.47.74.71l.36.38c.13.14.27.26.39.37.02.01.03-.02.03-.03zm-.34-.4c-.08-.11-.21-.26-.32-.39-.22-.27-.45-.52-.69-.77-.47-.5-.97-.99-1.51-1.43-1.06-.89-2.25-1.66-3.55-2.18-1.3-.52-2.72-.78-4.13-.78-1.42-.01-2.82.26-4.14.65-2.66.76-5.22 1.78-7.79 2.74l-1.92.71c-.64.23-1.29.45-1.93.62-.16.04-.32.07-.47.09-.15.02-.27.01-.4-.03-.25-.08-.49-.29-.66-.54-.35-.51-.55-1.18-.53-1.82.01-.31.09-.64.31-.76.28-.15.6-.28.92-.41.64-.25 1.28-.48 1.93-.69 1.3-.42 2.63-.8 3.95-1.12 1.34-.32 2.68-.57 4.04-.77 1.36-.2 2.72-.34 4.07-.4s2.72-.05 4.03.18c.66.11 1.3.28 1.9.56.61.27 1.19.6 1.75.98 2.21 1.53 3.97 3.75 5.45 5.97-.13-.15-.22-.3-.31-.41z" fill="#1b141c" stroke-width="none" opacity="1"></path></g></g></g><g id="svga-group-nose-single-move" transform="matrix(1,0,0,1,0,0)"><g id="svga-group-nose-single"><path id="SvgjsPath5935" d="M109.52 109.12c-.37-.88-.94-1.63-1.59-2.29.5.77.95 1.58 1.22 2.42.13.42.21.86.14 1.25-.04.2-.1.36-.23.53-.12.17-.25.34-.41.47-.61.58-1.49.8-2.35.68-.43-.05-.87-.17-1.28-.35-.39-.14-.76-.35-1.13-.54.33-.49.63-1.01.89-1.55-.86.8-1.66 1.61-2.52 2.32-.43.35-.86.7-1.32.96-.45.27-.94.48-1.33.46-.1.01-.18-.02-.27-.03-.08-.05-.15-.05-.26-.14-.21-.13-.43-.31-.65-.48-.44-.34-.87-.72-1.31-1.08-.87-.74-1.75-1.48-2.69-2.17.44.7.95 1.34 1.47 1.97-.44.2-.89.36-1.34.46-.56.11-1.15.13-1.62-.09-.95-.47-1.51-1.61-1.35-2.58.04-.25.12-.44.26-.65.15-.23.32-.46.49-.69.35-.45.72-.9 1.11-1.33l.58-.65c.23-.25.4-.49.58-.74.36-.5.68-1.03.94-1.61.26-.57.42-1.23.52-1.81.1-.59.2-1.18.26-1.77.13-1.18.24-2.36.27-3.55.08-2.37.02-4.76-.45-7.08.05 2.36-.12 4.7-.35 7.03-.13 1.16-.26 2.33-.44 3.48-.09.58-.18 1.15-.28 1.72-.11.58-.23 1.07-.47 1.57-.22.5-.5.99-.82 1.45-.16.23-.33.47-.5.65-.2.23-.39.45-.58.68-.38.46-.74.94-1.09 1.43-.17.25-.35.5-.5.77-.18.29-.3.67-.32 1-.11 1.38.74 2.67 1.98 3.12.64.2 1.29.1 1.86-.1.47-.16.9-.4 1.31-.67.21.25.41.5.63.74.39.44.8.84 1.24 1.25.22.2.45.39.72.57.11.09.32.19.5.27.19.05.39.1.58.1.77 0 1.36-.33 1.88-.66.51-.36.96-.75 1.36-1.2.39-.42.74-.87 1.06-1.34.66.58 1.44 1.09 2.36 1.27.47.1.98.11 1.46 0 .48-.12.94-.36 1.31-.7.19-.17.34-.37.48-.57.15-.2.26-.48.28-.73.03-.54-.1-1.03-.29-1.47z" fill="#c5796d" stroke-width="none" opacity="1" stroke="none"></path></g></g><g id="svga-group-hair-front"><path id="SvgjsPath10980" d="M83.8 34s5.6-3.8 7.1-4.8 19.5 0 23.5.6 23 11.7 27.6 17.2c4.6 5.5 7.4 31.9 7.4 31.9l-5.7 19.5s-1.9-19.9-3.4-23.2c-1.5-3.2-10.1-9.2-10.1-9.2s-23.6-4.2-26.6-5.4-16.2-13.3-16.2-13.3-5.2 10-6.7 11.1c-1.5 1.2-17.6 13.4-17.6 13.4S59.4 82 58.9 84.5s.8 18.6.8 18.6-6.8-17.2-7.3-19.1-3.4-7.1-3.4-7.1 3.5-21.8 5-26.2 19.4-16.4 19.4-16.4l10.4-.3z" fill="#2a232b" stroke-width="none" opacity="1"></path><path id="SvgjsPath10981" d="M150.2 78.8c-.4-4.1-.9-8.1-1.6-12.2-.7-4-1.4-8.1-2.5-12.1-.6-2-1.2-4-2.1-5.9-.2-.5-.5-1-.8-1.4-.3-.5-.7-.9-1-1.3-.7-.8-1.5-1.5-2.3-2.2-3.2-2.7-6.6-4.9-10.1-7.1-3.5-2.2-7.1-4.2-10.8-5.9-.9-.4-1.9-.9-2.9-1.2-.5-.2-1-.3-1.6-.4-.5-.1-1-.1-1.6-.2-2.1-.2-4.1-.3-6.1-.4-4.1-.2-8.2-.3-12.3-.2-1 0-2.1.1-3.1.3-.1 0-.3.1-.4.1-.1 0-.3.1-.4.2l-.6.4-1.3.9c-1.7 1.2-3.3 2.4-4.9 3.6l-10.6.2H73c-3.6 2.4-7.2 4.9-10.7 7.5-1.7 1.3-3.4 2.7-5.1 4.2-.8.7-1.6 1.5-2.4 2.3-.4.4-.7.9-1.1 1.3-.3.5-.6 1.1-.8 1.6-.7 2.2-1.1 4.3-1.5 6.4-.5 2.1-.9 4.3-1.2 6.4-.8 4.3-1.5 8.6-2.3 12.9v.3l.1.3c1.1 2.1 2.2 4.2 3 6.3.1.3.2.5.3.8l.3.9.6 1.7 1.3 3.3 5.1 13.2 2.5 6.6-.6-7.1c-.2-2.6-.4-5.3-.6-7.9s-.3-5.3-.3-7.9c0-.7 0-1.3.1-1.9 0-.5.2-1.1.4-1.7.4-1.2.8-2.5 1.2-3.8.8-2.4 1.6-4.8 2.5-7.3L77.6 62l3.5-2.7c.8-.6 1.2-1.3 1.6-1.9.4-.6.8-1.3 1.2-1.9 1.3-2.2 2.6-4.5 3.7-6.8 2.7 2.5 5.4 4.9 8.3 7.3 1.6 1.3 3.1 2.6 4.8 3.8.8.6 1.6 1.2 2.7 1.6 1 .3 2 .5 3 .7 3.9.8 7.9 1.5 11.8 2.3l11.8 2.1c2.5 1.8 5 3.6 7.2 5.7 1.1 1.1 2.2 2.2 2.8 3.5.5 1.4.8 2.9 1 4.5 1 6.1 1.6 12.3 2.2 18.5l.2 2.5.8-2.4 6-19.5v-.5zm-7.1 10.4c-.4-3.1-.8-6.2-1.4-9.2-.3-1.5-.5-3.1-1.1-4.6-.7-1.5-1.9-2.6-3-3.7-2.3-2.1-4.8-4-7.3-5.8h-.2c-3.9-.7-7.9-1.4-11.8-2.3-3.9-.8-7.9-1.6-11.8-2.5-1-.2-2-.5-2.8-.8-.8-.3-1.6-1-2.4-1.5-1.6-1.2-3.1-2.5-4.6-3.8-3-2.7-5.9-5.4-8.8-8.1l-.8-.7-.4.8c-1.4 2.6-2.8 5.1-4.3 7.6l-1.2 1.8c-.4.6-.8 1.2-1.2 1.5l-3.5 2.6-14 10.6-.2.2-.1.3-2.7 7.5c-.4 1.3-.9 2.5-1.3 3.8-.2.7-.4 1.3-.5 2.2 0 .7-.1 1.4-.1 2.1 0 2.7.2 5.4.3 8 0 .4.1.8.1 1.2l-2.7-6.8-1.3-3.3-1.2-3.3c-1-2.2-2.1-4.1-3.2-6.1.7-4.2 1.3-8.4 2.1-12.6l1.2-6.4c.4-2.1.8-4.3 1.4-6.3.1-.5.3-.9.6-1.3l.9-1.2c.7-.8 1.5-1.5 2.2-2.3 1.6-1.5 3.2-2.9 4.9-4.2 3.4-2.7 6.8-5.3 10.3-7.8l10.6-.8 5.2-3.3 1.3-.8.7-.4c.1-.1.2-.1.3-.1.1 0 .2-.1.3-.1 1-.1 2-.1 3-.1 4.1 0 8.1.3 12.2.5 2 .1 4.1.3 6.1.5.5.1 1 .1 1.5.2.4.1.9.2 1.3.4l2.7 1.2c3.6 1.8 7.1 3.9 10.6 6 3.4 2.2 6.8 4.5 9.9 7 .8.7 1.5 1.3 2.1 2 .3.4.6.7.8 1.1.2.4.5.8.7 1.2.8 1.8 1.4 3.7 1.9 5.7 2.1 7.8 3.2 15.8 4.2 23.8l-4.7 17c-.3-2.1-.6-4.4-.8-6.6zm-7.7-28.5-.1-.1c-4.1-1-8.3-2-12.4-2.9l-12.4-2.8c-.1 0-.2-.1-.3-.1l-.3-.2c-.2-.1-.4-.3-.7-.4l-1.3-.8-2.7-1.8-5.3-3.5c-3.5-2.4-7.1-4.7-10.6-7 3.4 2.6 6.8 5.1 10.2 7.6 1.7 1.2 3.4 2.5 5.2 3.7l2.6 1.8 1.3.9c.2.1.4.3.7.4l.4.2c.1 0 .3.1.4.1 4.2 1 8.3 1.9 12.5 2.8 4.1.9 8.3 1.7 12.4 2.5l3.6 3.6c1.2 1.2 2.5 2.4 3.7 3.6-1.1-1.3-2.3-2.6-3.5-3.8-1.1-1.3-2.2-2.6-3.4-3.8zm-32.8-17.6c2.4.7 4.8 1.4 7.2 2l7.2 2 5.5 2.9c1.8 1 3.7 2 5.5 2.9 1.9 1 3.7 2 5.5 3 1.8 1 3.7 2 5.5 2.9-1.8-1.1-3.5-2.2-5.3-3.3-1.8-1.1-3.6-2.2-5.4-3.2s-3.7-2-5.5-3l-5.5-3h-.2l-7.2-1.9c-2.4-.6-4.8-1.3-7.2-1.9l-7.2-1.8c-2.4-.6-4.8-1.2-7.3-1.7 2.4.8 4.8 1.5 7.1 2.2l7.3 1.9zM72.2 58.5c-1.2.9-2.3 1.9-3.5 2.8l-3.5 2.9-3.5 2.9-3.5 2.9-.2.2v.1c-.3 1.5-.6 2.9-.9 4.4-.3 1.5-.6 2.9-.8 4.4.4-1.4.8-2.9 1.2-4.3.4-1.4.8-2.8 1.1-4.2l3.5-2.7 3.6-2.8 3.6-2.8c1.2-.9 2.4-1.9 3.5-2.9h.1v-.1c1.9-2.9 3.9-5.8 5.8-8.8 1.9-2.9 3.8-5.9 5.6-8.9-2.1 2.8-4.1 5.6-6.2 8.5-2 2.7-4 5.6-5.9 8.4zm-8-5.9c.2-.3.3-.6.4-.8h.1l.2-.1.3-.3c1-.8 2-1.5 3-2.2 2-1.5 4.1-3 6.1-4.5s4.1-3 6-4.7c-2.2 1.3-4.3 2.6-6.5 4-2.1 1.4-4.2 2.8-6.3 4.3-1 .8-2 1.5-3 2.3l-.4.3-.2.2c-.1.1-.2.2-.2.3-.2.3-.2.5-.4.8l-.8 1.7-1.5 3.5c-.5 1.2-1.1 2.3-1.5 3.5 1.4-2.2 2.6-4.3 3.8-6.6.3-.6.6-1.1.9-1.7zm42.1-18.8 1.5-.2c.4 0 .9.1 1.4.2 2 .4 3.9.8 5.9 1.2-1.9-.7-3.8-1.4-5.8-1.9-.5-.1-.9-.3-1.6-.3l-1.5.1-3 .3c-4 .5-8.1 1-12 1.8 4.1 0 8.1-.4 12.1-.8l3-.4z" fill="#1b141c" stroke-width="none" opacity="1"></path></g><g id="svga-group-glasses-single-move" transform="matrix(1,0,0,1,0,0)"><g id="svga-group-glasses-single"></g></g></g></g></g><rect id="svga-credit-rect" width="200" height="15" x="0" y="185" fill="#ecf0f1" opacity="0.5" style="display: none;"></rect><text id="svga-credit-text" font-family="Avenir Next, Roboto, Helvetica, Arial, sans-serif" font-size="10px" text-anchor="start" font-weight="400" size="10px" anchor="start" weight="400" fill="#333333" x="33.40447998046875" y="182.60824704170227" style="display: none;"><tspan id="SvgjsTspan5007" dy="13" x="33.40447998046875">Created on AvatarMaker.com</tspan></text></g><defs id="SvgjsDefs4959"><linearGradient id="SvgjsLinearGradient5769" x1="99.7789" y1="100.5259" x2="99.7789" y2="111.7225" gradientUnits="userSpaceOnUse" class="svga-on-canvas-nose-gradient-single-0-null"><stop id="SvgjsStop5770" stop-opacity="0" stop-color="#f3d4cf" offset="0" ></stop><stop id="SvgjsStop5771" stop-opacity="1" stop-color="#ebc3bd" offset="1" ></stop></linearGradient><linearGradient id="SvgjsLinearGradient5814" x1="100.0291" y1="78.4287" x2="100.0291" y2="116.3678" gradientUnits="userSpaceOnUse" class="svga-on-canvas-nose-gradient-single-0-null"><stop id="SvgjsStop5815" stop-opacity="0" stop-color="#fff4f3" offset="0" ></stop><stop id="SvgjsStop5816" stop-opacity="0.9727" stop-color="#f3d4cf" offset="0.7584" ></stop><stop id="SvgjsStop5817" stop-opacity="0.9769" stop-color="#ebc3bd" offset="0.7953" ></stop><stop id="SvgjsStop5818" stop-opacity="0.9852" stop-color="#e4b3ab" offset="0.8691" ></stop><stop id="SvgjsStop5819" stop-opacity="0.9968" stop-color="#d4958a" offset="0.972" ></stop><stop id="SvgjsStop5820" stop-opacity="1" stop-color="#c5796d" offset="1" ></stop></linearGradient></defs></svg>