<svg id="SvgjsSvg1101" width="288" height="288" xmlns="http://www.w3.org/2000/svg" version="1.1" xmlnsXlink="http://www.w3.org/1999/xlink" xmlnsSvgjs="http://svgjs.com/svgjs"><defs id="SvgjsDefs1102"></defs><g id="SvgjsG1103"><svg xmlns="http://www.w3.org/2000/svg" data-name="Layer 1" viewBox="0 0 24 24" width="288" height="288"><path d="M15,11H13V7a1,1,0,0,0-2,0v5a1,1,0,0,0,1,1h3a1,1,0,0,0,0-2ZM12,2A10,10,0,1,0,22,12,10.01114,10.01114,0,0,0,12,2Zm0,18a8,8,0,1,1,8-8A8.00917,8.00917,0,0,1,12,20Z" fill="#085f63" class="color000 svgShape"></path></svg></g></svg>